<svg viewBox="0 0 96 96" xmlns="http://www.w3.org/2000/svg" xmlns:xlink="http://www.w3.org/1999/xlink" id="Icons_Windy_M" overflow="hidden"><style>
.MsftOfcThm_MainLight1_Fill_v2 {
 fill:#FFFFFF; 
}
.MsftOfcThm_MainDark1_Stroke_v2 {
 stroke:#000000; 
}
</style>
<g id="Icons"><path d="M16 38C16 38.5523 16.4477 39 17 39L45 39C49.9706 39 54 34.9706 54 30 54 25.0294 49.9706 21 45 21 40.0294 21 36 25.0294 36 30L36 31C36 31.5523 36.4477 32 37 32 37.5523 32 38 31.5523 38 31L38 30C38 26.134 41.134 23 45 23 48.866 23 52 26.134 52 30 52 33.866 48.866 37 45 37L17 37C16.4477 37 16 37.4477 16 38Z" class="MsftOfcThm_MainLight1_Fill_v2 MsftOfcThm_MainDark1_Stroke_v2" stroke="#000000" stroke-width="0.727273" fill="#FFFFFF"/><path d="M75 25C67.8159 25.0044 61.9956 30.8318 61.9999 38.0159 62.0008 39.4864 62.2511 40.9462 62.74 42.333 62.9091 42.8587 63.4725 43.1478 63.9982 42.9787 64.5239 42.8096 64.813 42.2462 64.6439 41.7205 64.6381 41.7025 64.6318 41.6847 64.625 41.667 62.5998 35.9394 65.6012 29.6544 71.3288 27.6292 77.0564 25.604 83.3413 28.6054 85.3666 34.333 87.3918 40.0606 84.3904 46.3456 78.6628 48.3708 77.4864 48.7867 76.2478 48.9995 75 49L9 49C8.44771 49 8 49.4477 8 50 8 50.5523 8.44771 51 9 51L75 51C82.1797 51 88 45.1797 88 38 88 30.8203 82.1797 25 75 25Z" class="MsftOfcThm_MainLight1_Fill_v2 MsftOfcThm_MainDark1_Stroke_v2" stroke="#000000" stroke-width="0.727273" fill="#FFFFFF"/><path d="M56 61 21 61C20.4477 61 20 61.4477 20 62 20 62.5523 20.4477 63 21 63L56 63C58.7614 63.0011 60.9991 65.2406 60.9979 68.0021 60.9968 70.7635 58.7573 73.0011 55.9959 73 53.8778 72.9991 51.9902 71.6638 51.284 69.667 51.1001 69.1462 50.5288 68.8731 50.008 69.057 49.4872 69.2409 49.2141 69.8122 49.398 70.333 50.6865 73.978 54.6858 75.8883 58.3308 74.5998 61.9757 73.3113 63.886 69.312 62.5976 65.667 61.6091 62.8708 58.9658 61.0009 56 61Z" class="MsftOfcThm_MainLight1_Fill_v2 MsftOfcThm_MainDark1_Stroke_v2" stroke="#000000" stroke-width="0.727273" fill="#FFFFFF"/></g></svg>