<svg viewBox="0 0 96 96" xmlns="http://www.w3.org/2000/svg" xmlns:xlink="http://www.w3.org/1999/xlink" id="Icons_Sustainability_M" overflow="hidden"><style>
.MsftOfcThm_Accent6_Fill_v2 {
 fill:#419964; 
}
</style>
<g id="Icons"><path d="M49.815 11C51.5615 10.9928 53.1832 11.9043 54.085 13.4L71.508 42.023C71.515 42.035 71.508 42.041 71.497 42.038L61.455 39.462 60.955 41.4 74.455 44.862 77.918 31.362 75.98 30.862 73.343 41.156C73.343 41.169 73.331 41.17 73.324 41.156L55.794 12.356C54.5302 10.2634 52.2596 8.98892 49.815 9L49.815 9C47.3697 8.99036 45.0993 10.2663 43.836 12.36L32.743 30.583 34.452 31.623 45.544 13.4C46.4512 11.9099 48.0694 11.0003 49.814 11Z" class="MsftOfcThm_Accent6_Fill_v2" fill="#419964"/><path d="M10.381 76.411C9.38395 74.8144 9.37891 72.7905 10.368 71.189L29.112 40.4C29.119 40.389 29.127 40.39 29.13 40.4L31.7 50.177 33.634 49.669 30.134 36.369 16.834 39.869 17.342 41.803 27.531 39.125C27.545 39.125 27.55 39.125 27.542 39.14L8.659 70.149C7.34225 72.2815 7.28181 74.9593 8.501 77.149 9.81919 79.4346 12.2728 80.826 14.911 80.784L38.146 80.784 38.146 78.784 14.846 78.784C13.0474 78.8186 11.3587 77.9211 10.381 76.411Z" class="MsftOfcThm_Accent6_Fill_v2" fill="#419964"/><path d="M66.287 53.123C66.055 53.123 65.827 53.1203 65.603 53.115 56.9408 53.29 50.0601 60.4528 50.233 69.115 50.2344 70.8088 50.4968 72.4922 51.011 74.106 51.5106 75.6042 52.2632 77.0058 53.236 78.25L53.604 78.735 52.784 79.535C49.125 83.274 47.493 86.083 47.493 88.64 47.493 89.1923 47.9407 89.64 48.493 89.64 49.0453 89.64 49.493 89.1923 49.493 88.64 49.493 87.402 49.982 85.258 54.193 80.952L54.859 80.307C56.9334 82.6988 59.7448 84.3323 62.85 84.95 63.7448 85.1162 64.6529 85.1999 65.563 85.2L65.657 85.2C68.327 85.1998 70.9463 84.4702 73.232 83.09 84.992 76.28 86.472 63.74 86.472 49.66 86.473 49.655 74.375 53.123 66.287 53.123ZM72.2 81.373C70.2266 82.5669 67.9644 83.1987 65.658 83.2L65.564 83.2C64.7764 83.1997 63.9905 83.1274 63.216 82.984 60.5178 82.4413 58.0813 81.005 56.3 78.907L70.428 65.223C70.8392 64.8543 70.8736 64.222 70.5049 63.8109 70.1361 63.3997 69.5039 63.3653 69.0927 63.734 69.0738 63.751 69.0556 63.7686 69.038 63.787L55.051 77.334 54.828 77.04C53.9942 75.9773 53.3479 74.7802 52.917 73.5 52.4617 72.0692 52.2306 70.5765 52.232 69.075 52.0911 61.5374 58.0634 55.3007 65.6 55.115 65.826 55.121 66.056 55.123 66.288 55.123 72.349 55.123 80.388 53.298 84.451 52.265 84.206 66.068 81.829 75.8 72.2 81.373Z" class="MsftOfcThm_Accent6_Fill_v2" fill="#419964"/></g></svg>