<svg viewBox="0 0 792 612" xmlns="http://www.w3.org/2000/svg" xmlns:xlink="http://www.w3.org/1999/xlink" xml:space="preserve" overflow="hidden"><g id="Layer_3"><g><path d="M329.17 246.22C321.68 242.91 313.74 244.91 309.26 250.52 306.47 251.01 303.7 251.65 301 252.51 294.68 254.51 288.46 257.29 282.85 260.84 271.36 268.09 261.74 278.21 255.41 290.26 248.54 303.35 268.38 314.99 275.27 301.87 279.29 294.21 284.84 287.68 291.65 282.64 292.44 286.19 294.9 289.4 299.42 290.9L301.42 291.56C301.01 292.63 300.6 293.71 300.25 294.79 298.62 299.91 298.28 305.39 299.7 310.61 300.79 314.6 303.48 318.21 304.06 322.34 304.67 326.7 303.15 331.29 302.08 335.45 301.65 337.13 301.59 338.72 301.82 340.2 300 341.2 298.24 341.8 296.14 342.55 287.39 345.67 278.62 348.73 269.86 351.82 264.01 353.88 260.1 359.68 261.83 365.97 263.39 371.64 270.09 376.08 275.98 374 281.94 371.9 288.01 369.95 294.03 367.86 292.39 370.5 291.74 373.73 292.79 376.75 295.51 384.6 297.14 392.48 297.64 400.65 296.85 402.52 296.39 404.54 296.01 406.51 294.71 413.24 291.71 419.23 286.84 424.07 283.3 427.59 278.6 429.64 274.91 432.68 273.54 427.68 269.49 423.8 263.88 423.8 258.04 423.8 251.89 429.07 252.38 435.3 253.21 445.71 255.82 456.9 266.53 461.25 276.72 465.39 289.33 460.46 291.48 449.12 293.37 448.06 295.14 446.88 296.88 445.58 301.35 442.24 305.02 438.57 308.39 434.13 311.13 430.51 313.27 426.71 315.03 422.54 316.12 419.97 316.99 416.84 317.68 414 318.28 413.32 318.81 412.54 319.26 411.63 319.34 411.46 319.42 411.3 319.51 411.13 320.82 408.49 321.56 405.1 320.75 402.14 320.37 391.43 318.48 380.79 314.97 370.66 313.68 366.94 310.85 364.01 307.35 362.81 308.35 362.39 309.34 361.97 310.32 361.52 320.33 356.98 328.15 348.93 328.54 337.49 328.62 335.2 327.84 333.06 326.52 331.24 326.87 329 327.09 326.75 327.11 324.51 327.15 318.26 325.26 313.14 322.98 307.47 321.65 304.15 321.68 302.98 322.93 299.45 324.74 294.33 326.56 289.41 326.19 283.86 326.11 282.72 325.91 281.65 325.6 280.64 327.01 278.46 328.07 276.06 328.66 273.53 329.12 271.57 329.27 269.63 329.19 267.65 332.25 264.94 334.22 261.12 334.86 256.17 335.33 252.6 332.42 247.66 329.17 246.22ZM276.05 440.36C276.84 440.54 276.22 442.62 276.05 440.36L276.05 440.36Z" fill="#FF8282"/><path d="M228.34 440.55C221.04 427.67 201.16 439.25 208.48 452.16 209.66 454.24 210.57 456.49 211.08 458.83 200.75 460.29 189.83 460.78 180.74 455.45 175.89 452.61 173.66 447.64 169.23 444.3 168.71 443.91 168.17 443.56 167.61 443.23 167.27 442.41 166.89 441.61 166.45 440.84 167.36 440.09 168.26 439.33 169.08 438.47 171.82 435.6 174.22 432.28 175.98 428.72 180.15 420.27 181.02 411.44 179.46 402.21 178.68 397.62 172.99 393.39 168.37 393.77 158.89 394.55 149.61 396.27 140.65 399.53 136.35 401.09 132.14 402.94 127.73 404.16 125.04 404.9 121.4 405.21 119.89 405 118.29 404.78 118.22 404.73 117.1 404.12 116.69 403.86 116.39 403.67 116.2 403.56 115.32 402.68 115.16 402.51 115.72 403.05 114.59 400.17 114.58 396.19 113.86 392.86 113.51 391.25 113 389.71 112.37 388.26 114.64 388.84 116.91 389.41 119.2 389.94 130.28 392.52 136.46 380.01 132.16 372.56 137.24 372.84 142.28 373.31 147.17 373.74 151.61 374.13 156.12 370.54 157.68 366.67 159.54 362.05 158.33 357.87 155.3 354.11 144.39 340.56 125.31 337.52 108.92 339.13 88.54 341.13 68.89 347.29 50.51 356.2 46.47 358.16 44.39 363.48 45.02 367.66 45.75 372.51 48.81 375.46 53.26 377.22 64.89 381.82 75.94 387.99 86.17 395.19 87.73 396.28 89.24 397.41 91.12 397.92 91.21 397.94 91.28 397.96 91.36 397.99 91.45 398.63 91.83 399.51 91.9 399.92 93.25 407.12 93.94 413.38 99.18 419.04 107.53 428.05 120.84 429.5 132.2 426.77 138.36 425.29 144.1 422.52 150.11 420.55 151.76 420.01 153.42 419.52 155.1 419.08 154.45 420.21 153.69 421.27 152.83 422.22 150.53 424.74 147.52 426.47 145.26 429.03 141.93 432.81 140.34 436.97 140.04 442 139.77 446.57 142.65 449.91 146.24 451.98 145.79 457.02 148.18 461.93 153.13 463.93 154.29 464.4 155.57 464.67 156.87 464.75 157.51 465.47 158.12 466.11 158.37 466.41 159.97 468.32 161.77 469.92 163.71 471.47 169 475.67 175.04 478.69 181.56 480.5 196.01 484.51 210.99 482.1 225.48 479.7 229.01 479.12 232.94 475.21 233.51 471.67 235.28 460.69 233.87 450.3 228.34 440.55Z" fill="#FF8282"/></g></g><g id="Layer_2"><g><path d="M226.94 425.89C224.12 417.55 219.8 410.39 214.17 403.65 213.19 402.47 212.07 401.6 210.87 400.99 210.08 396.35 206.92 392.29 202.01 390.94 200.82 390.61 199.58 390.49 198.34 390.55 198.38 390.53 198.43 390.51 198.47 390.5 204.7 387.92 209.15 382.21 207.2 375.12 206.55 372.77 204.97 370.5 202.9 368.78 202.02 363.29 196.85 357.3 190.65 358.06 189.46 358.2 188.28 358.37 187.1 358.53 186.21 358.23 185.34 357.9 184.48 357.53 182.2 356.64 179.94 355.69 177.63 354.85 173.02 353.18 168.32 351.76 163.57 350.57 153.58 348.08 143.29 346.66 133.02 346.06 130.89 345.94 128.87 346.49 127.09 347.51L122 347.51C115.46 347.51 109.2 353.26 109.5 360.01 109.65 363.32 110.97 366.38 113.1 368.65 110.71 368.97 108.3 369.58 105.93 370.42 99.57 372.68 95.32 378.95 97.2 385.8 98.89 391.96 106.18 396.8 112.58 394.53 112.71 394.48 113.07 394.39 113.51 394.27 114.3 398.41 117.46 401.4 121.29 402.78 121.19 407.57 123.61 412.31 129.08 414.57 137.31 417.98 146.1 412.22 153.62 409.1 165.74 404.07 177.86 399.05 189.99 394.02 189.21 394.74 188.52 395.55 187.97 396.46 187.91 396.49 187.87 396.52 187.8 396.55 186.68 397.14 185.74 397.68 184.71 398.41 181.89 400.4 179.73 402.87 178.22 405.97 177.35 407.75 176.76 409.52 176.18 411.39 176.12 411.63 176.03 411.87 175.96 412.11 175.23 412.35 173.87 412.78 173.4 412.94 160.31 417.33 149.67 428.61 151.4 443.37 152.23 450.49 158.86 458.76 167.22 455.42 167.45 455.33 167.69 455.23 167.92 455.14 168.39 458.6 170.22 461.77 173.72 463.82 175.78 465.03 178.41 465.55 181.02 465.38 181.39 465.61 181.77 465.83 182.16 466.04 186.69 468.43 191.11 467.67 195.93 466.77 202.79 465.5 209.47 463.53 215.98 461.04 222.76 458.45 225.98 452.89 224.71 445.66 224.61 445.1 224.55 444.49 224.48 443.88 225.33 443.02 226.11 442.02 226.78 440.81 229.44 436.08 228.58 430.74 226.94 425.89ZM129.36 372.5 136.16 372.5C134.66 373.14 133.17 373.8 131.68 374.48 130.95 373.77 130.17 373.11 129.36 372.5Z" fill="#FFE600"/><path d="M291.09 369.35C277.88 368.24 264.29 368.85 250.97 368.86 253.64 368.36 256.32 367.85 258.99 367.35 264.19 366.37 266.84 362.17 267.14 357.65 274.51 355.83 281.86 354.93 289.58 354.95 294.99 354.96 299.68 350.94 300.82 345.82 308.47 341.92 307.7 331.34 301.9 326.58 302.33 325.42 302.68 324.2 302.93 322.94 303.79 318.56 302.59 314.32 299.61 311.51 300.49 310.89 301.32 310.23 302.06 309.49 309.35 302.2 304.73 293.9 300.03 286.91 295.49 280.15 286.09 279.35 281.06 285.65 278.39 285.01 275.2 285.2 272.73 285.93 269.76 286.81 266.83 288.25 263.96 289.78 263.09 289.82 262.2 289.96 261.28 290.23 256.8 291.58 253.71 294.37 252.2 298.19 251.75 298.4 251.32 298.62 250.91 298.85 248.32 300.3 246.05 302.45 244.56 305.04 243.09 307.6 242.49 310.28 242.61 312.9 236.05 319.83 230.34 327.54 224.81 335.54 222.08 339.49 219.98 343.41 220.62 348.41 220.77 349.59 221.1 350.72 221.56 351.78 213.15 357.06 216.58 373.79 228.14 373.01 231.96 372.75 235.58 372.15 239.11 371.11 239.69 371 240.28 370.89 240.86 370.78 235.9 374.07 232.97 380.95 236.97 386.17 237.03 386.25 237.08 386.31 237.13 386.38 235.54 389.11 234.79 392.36 234.91 395.48 235.16 402.18 238.2 409.38 239.95 415.82 241.79 422.59 244.21 428.75 251.01 431.84 252.04 432.31 253.07 432.69 254.14 433.03 255.54 435.47 258.15 437.94 259.58 438.85 271.28 446.23 284.4 434.56 287.88 423.74 288.58 421.55 289 419.28 289.18 416.98 295.97 420 305.87 416.66 305.92 406.95 305.99 393.62 310.02 370.94 291.09 369.35Z" fill="#FFE600"/></g></g><g id="Layer_1"><g><path d="M681.04 480.02C679.64 475.12 677.5 470.56 674.49 466.5 671.74 462.78 668.6 459.35 665.62 455.81 664.28 454.22 662.95 452.62 661.55 451.1 659.76 449.16 657.52 448.01 654.92 447.52 652.49 447.06 650.06 446.58 647.65 446.01 644.41 445.24 641.19 444.37 637.69 443.48 638.33 442.33 638.86 441.46 639.32 440.56 640.08 439.07 640.86 437.58 641.52 436.05 642.49 433.81 642.39 431.54 641.37 429.32 640.94 428.38 640.39 427.46 640.13 426.47 639.6 424.48 638.93 422.46 638.88 420.43 638.82 417.79 637.98 415.67 636.41 413.62 633.7 410.07 631.16 406.39 628.56 402.75 625.92 399.07 625.31 394.96 626.36 390.66 627.43 386.26 627.18 381.93 626.17 377.62 624.72 371.37 622.24 365.62 617.47 361.11 615.51 359.26 613.29 358.62 610.64 359.59 607.57 360.71 604.99 362.59 602.61 364.72 597.67 369.15 592.9 373.77 587.89 378.12 585.07 380.57 582.63 383.28 580.91 386.56 579.31 389.62 577.71 392.72 576.55 395.95 576.39 396.52 576.21 397.07 575.98 397.59 573.26 405.55 570.77 413.59 568.17 421.65 568.11 421.62 567.92 421.57 567.86 421.45 565.83 417.3 562.74 413.96 559.72 410.53 557.09 407.54 554.61 404.4 552.22 401.21 551.49 400.24 550.87 398.87 550.89 397.7 550.96 394.34 549.26 392.12 546.79 390.28 545.32 389.18 543.85 388.05 542.25 387.16 538.38 385 535.5 381.94 533.06 378.26 522.1 361.73 511.46 345.01 501.35 327.95 500.66 326.79 499.88 325.64 498.93 324.69 497.06 322.82 495.35 323.23 494.27 325.65 493.43 327.53 493.24 329.51 493.58 331.52 494.59 337.49 495.39 343.52 496.75 349.42 499 359.13 500.73 368.99 504.29 378.35 507.05 385.59 509.8 392.83 512.75 400 519.95 417.5 527.3 434.95 534.52 452.45 536.13 456.34 538.12 460.13 538.66 464.4 539.06 467.57 539.47 470.73 539.86 473.9 539.89 474.18 539.79 474.47 539.69 475.12 517.34 461.52 495.2 448.05 472.7 434.36L472.7 437.08C475.62 437.84 537.04 476.38 540.42 478.66 540.42 478.93 540.45 479.25 540.42 479.55 540.04 482.82 540.91 485.7 543.02 488.25 543.73 489.11 544.34 490.08 544.8 491.09 545.34 492.27 545.51 493.51 544.28 494.62 543.86 494.35 543.52 494.18 543.22 493.93 538.8 490.25 534.42 486.52 529.95 482.89 528.54 481.74 526.98 480.73 525.36 479.91 523.85 479.14 522.89 479.53 522.24 481.04 521.31 483.19 520.83 485.4 521.72 487.77 523.39 492.17 525.02 496.59 526.5 501.07 527.45 503.94 528.17 506.89 528.81 509.85 529.14 511.36 528.82 511.73 527.31 511.97 525.9 512.19 524.45 512.16 523.02 512.2 521.83 512.23 520.83 512.51 520.37 513.69 520.47 513.93 520.5 514.12 520.6 514.22 522.41 515.81 525.47 516.11 527.78 514.95 530.28 513.69 531.42 511.65 531.1 508.9 531.01 508.11 530.8 507.33 530.57 506.57 528.77 500.69 526.93 494.83 525.14 488.95 524.73 487.61 524.43 486.24 524.04 484.69 524.58 484.78 524.84 484.75 525 484.86 530.54 488.8 536.08 492.76 540.36 498.14 542.18 500.43 544.38 501.69 547.29 501.82 549.26 501.91 551.23 502.11 553.19 502.26 553.38 503.67 553.55 504.89 553.73 506.21 553.05 506.3 552.51 506.39 551.96 506.44 549.73 506.63 547.5 506.77 545.28 507 543.95 507.14 543.44 507.79 543.58 509.06 543.63 509.53 543.78 510 543.99 510.43 545.89 514.31 547.97 518.1 550.86 521.35 553.51 524.33 555.47 527.66 556.49 531.53 556.89 533.03 556.72 534.27 555.39 535.38 554.11 536.45 553.06 537.79 551.95 539.05 551.78 539.24 551.68 539.51 551.52 539.89 552.47 539.3 553.46 538.76 554.47 538.27 555.95 537.25 557.36 536.28 558.75 535.3 559.77 534.58 560.19 533.56 559.69 532.36 559.14 531.04 558.63 529.67 557.86 528.47 555.84 525.31 553.61 522.27 551.61 519.09 550.03 516.59 548.58 514.01 547.24 511.38 546.42 509.75 546.99 508.99 548.74 508.83 550.25 508.69 551.77 508.6 553.24 508.26 554.27 508.02 555.09 508.19 555.96 508.69 557.97 509.84 559.98 511 562.04 512.06 564.16 513.14 566.32 514.16 568.51 515.09 569.99 515.72 571.06 516.74 571.86 518.06 573.03 519.96 574.19 521.86 574.24 524.22 574.26 525.28 574.58 526.3 575.8 526.67 577.82 527.29 579.8 527.13 581.88 526.48 579.05 524.65 575.99 523.15 575.8 518.76 577.32 520.18 578.73 521.16 579.7 522.47 583.79 528.04 588.79 532.77 593.55 537.72 597.09 541.41 600.77 544.96 604.45 548.51 606 550 607.6 551.48 609.35 552.71 611.13 553.96 614.89 552.91 615.86 550.99 616.14 550.44 616 549.6 615.84 548.94 615.68 548.28 615.25 547.69 614.87 546.92 615.38 546.92 615.69 546.91 616 546.92 618.95 547.05 621.89 547.28 624.84 547.28 627.23 547.28 628.99 546.14 629.61 543.71 630.27 541.09 630.83 538.43 631.45 535.8 631.57 535.3 631.77 534.82 631.96 534.24 634.49 535.29 636.84 536.29 639.2 537.24 642.85 538.71 646.56 538.49 650.23 537.39 651.6 536.98 652.9 536.39 653.14 534.59 653.21 534.09 654.05 533.56 654.65 533.28 656.17 532.57 657.77 532.04 659.3 531.37 661.51 530.39 663.16 528.82 664 526.51 664.75 524.42 666.1 522.75 667.66 521.24 668.87 520.07 670.1 518.93 671.36 517.83 673.33 516.1 674.25 514.05 674.36 511.34 674.6 505.36 675.02 499.38 675.69 493.44 676.07 490.04 676.98 486.68 679.92 484.32 681.32 483.24 681.54 481.77 681.04 480.02ZM668.08 465.67C669.04 466.23 669.83 466.69 670.53 467.1 670.45 468.26 669.87 468.73 669.09 468.5 667.76 468.13 668.02 466.98 668.08 465.67ZM670.39 486.44C667.87 485.14 669.95 483.5 670.04 481.67 672.1 484.89 672.1 484.9 670.39 486.44ZM664.6 483.87C663.57 486.86 662.46 489.83 661.37 492.83 650.65 490.06 640.03 486.2 628.57 486.11 632.01 485.16 634.81 482.7 638.6 482.46 642.48 482.21 646.31 481.23 650.19 480.95 654.55 480.64 658.95 480.76 663.33 480.69 664.22 480.68 664.67 481.15 664.71 481.99 664.75 482.62 664.8 483.3 664.6 483.87ZM615.1 485.1C614.2 484.81 613.88 484.18 613.84 483.3 613.75 481.57 613.64 479.84 613.54 478.11 616.2 477.67 624.02 480.07 627.44 482.4 627.2 482.71 627.02 483.12 626.71 483.3 623.08 485.46 619.28 486.46 615.1 485.1ZM615.21 502.27C616.01 502.81 616.65 503.12 617.11 503.6 617.36 503.87 617.48 504.52 617.33 504.84 617.16 505.19 616.6 505.56 616.23 505.55 615.88 505.54 615.34 505.08 615.26 504.73 615.1 504.05 615.21 503.33 615.21 502.27ZM627.18 478.79C624.87 477.77 622.4 477.1 620.01 476.27 630.63 473.47 640.79 469.68 650.8 465.47 653.62 464.28 653.65 464.35 655.63 464.5 656.61 466.56 657.4 468.74 658.63 470.63 659.83 472.48 661.47 474.03 663.2 476.02 661.69 476.45 660.53 476.95 659.34 477.1 652.38 477.99 645.4 478.8 638.43 479.64 637.48 479.75 636.53 479.9 635.59 480.04 632.65 480.48 629.9 479.99 627.18 478.79ZM661.68 455.88C662.85 457.06 663.69 457.9 664.45 458.67 663.99 460.09 663.18 459.79 662.46 459.48 661.4 459.04 661.29 458.53 661.68 455.88ZM661.2 465.97C659.51 465.29 658.63 464.13 658.34 462.38 661 462.55 661.33 462.96 661.2 465.97ZM655.65 453.11C654.17 452.21 653.15 451.58 651.84 450.79 654.09 450.23 654.33 450.38 655.65 453.11ZM650.33 455.15C648.96 456.55 648.93 456.54 647.37 454.46 648.57 454.1 649.42 454.52 650.33 455.15ZM645.34 449.64C643.44 449.62 642.71 448.73 642.57 447.16 644.08 447.29 644.08 447.29 645.34 449.64ZM639.88 455.42C640.73 457.65 642.59 458.3 644.78 458.63 646.57 458.9 648.34 459.44 650.03 460.09 650.92 460.44 651.63 461.27 652.69 462.11 648.32 463.41 644.37 464.59 640.42 465.75 632.62 468.05 624.82 470.34 617.02 472.63 616.18 472.88 615.28 472.98 614.49 473.33 612.56 474.18 610.88 473.59 609.35 472.47 608.01 471.5 606.78 470.37 605.3 469.14 605.97 468.81 606.42 468.54 606.9 468.36 615.58 465.1 623.87 460.99 632.07 456.69 633.82 455.77 635.71 455.07 637.57 454.39 638.55 454.04 639.43 454.24 639.88 455.42ZM573.91 455.92C573.86 456.25 573.26 456.49 572.69 456.96 572.36 455.64 572.12 454.7 571.89 453.77 573.08 454.23 574.11 454.7 573.91 455.92ZM573.7 446.47C575.6 447.55 575.67 447.78 574.6 449.59 573.36 448.57 573.36 448.57 573.7 446.47ZM575.16 460.28C575.73 459.86 576.34 459.45 576.98 459.14 579.22 458.05 580.7 458.57 581.89 460.75 582.42 461.72 582.99 462.7 583.68 463.56 584.32 464.36 585.14 465.01 586.09 465.93 583.33 471.14 579.6 475.24 573.84 478 572.66 475.31 570.45 474.77 568.11 474.39 567.13 474.23 566.18 473.84 564.84 473.45 565.68 471.77 566.25 470.3 567.09 469.01 569.29 465.66 571.92 462.67 575.16 460.28ZM583.64 454C580.3 452.36 579.66 450.9 580.66 447.46 581.6 447.33 582.58 447.51 582.41 448.66 582.14 450.58 582.77 452.22 583.64 454ZM581.48 478.19C583.67 476.46 585.78 474.62 587.93 472.84 588.73 472.18 589.52 471.5 590.37 470.91 591.12 470.39 591.73 470.72 592.13 471.48 592.2 471.62 592.24 471.78 592.27 471.94 592.81 475.34 595.18 477.32 597.8 479.12 599.85 480.53 601.57 482.25 602.98 484.68 600.26 485.92 597.67 486.34 595.04 486.43 592.8 486.51 590.56 486.46 588.32 486.44 585.44 486.41 583.06 485.13 581.07 483.18 579.21 481.37 579.47 479.77 581.48 478.19ZM587.95 458.87C589.57 457.48 590.42 458.08 591.15 461.23 589.92 460.33 588.95 459.61 587.95 458.87ZM597.4 470.84C595.52 469.54 595.51 469.52 596.38 466.65 597.79 467.97 597.05 469.44 597.4 470.84ZM593.79 489.84C596.96 489.82 600.14 490.11 603.31 490.33 605.02 490.45 606.21 491.49 607.26 492.76 608.83 494.65 609.67 496.88 610.22 499.22 610.39 499.95 610.25 500.76 610.25 501.96 608.68 501.42 607.4 501.06 606.19 500.54 602.38 498.92 598.6 497.22 594.79 495.6 593.62 495.11 592.37 494.81 591.17 494.39 589.39 493.77 588.89 493.06 588.79 490.73 590.42 490.44 592.1 489.85 593.79 489.84ZM604.19 477.82C604.4 476.92 604.62 476 604.84 475.09 606.13 475.92 606.82 477.14 607.44 479.8 606.32 479.12 605.27 478.48 604.19 477.82ZM609.89 488.68C609.76 488.08 609.86 487.43 609.86 486.32 610.82 487.01 611.45 487.29 611.78 487.77 612.02 488.12 612.01 488.83 611.81 489.23 611.66 489.54 610.98 489.82 610.64 489.72 610.31 489.63 609.98 489.08 609.89 488.68ZM620.14 457.59C620.56 456.49 621.58 456.26 622.93 456.17 622.75 457.77 622.23 458.89 620.99 459.58 619.89 459.15 619.86 458.34 620.14 457.59ZM630.04 451.18C629.66 452.56 629.44 453.36 629.2 454.21 628.04 454.11 627.16 453.72 627.26 452.75 627.41 451.39 628.8 451.87 630.04 451.18ZM628.17 441.01C628.89 441.42 629.46 441.75 630.36 442.26 629.54 442.9 628.97 443.34 628.38 443.8 627.36 442.95 627.46 442.19 628.17 441.01ZM632.93 433.61C635.02 434.93 635.05 435.15 633.54 437.52 632.78 436.26 632.11 435.1 632.93 433.61ZM638.11 429.82C638.32 429.88 638.52 429.93 638.73 429.99 638.6 431.7 638.47 433.41 638.3 435.62 637.53 433.89 636.99 432.71 636.37 431.33 636.86 430.91 637.49 430.36 638.11 429.82ZM636.4 448.47C638.3 449.36 638.3 449.36 637.68 451.29 636 450.14 636 450.14 636.4 448.47ZM635 420.42C635.84 421.71 634.83 422.55 633.95 423.85 633.31 422.38 632.81 421.22 632.33 420.11 633.6 419.16 634.44 419.56 635 420.42ZM632.12 415.22C630.95 415.39 630.15 415.12 630.15 413.69 630.15 412.98 630.15 412.25 629.97 411.57 629.82 410.99 629.42 410.47 628.85 409.41 632.56 411.48 633.01 412.34 632.12 415.22ZM628.84 422.01C627.97 422.69 627.38 423.15 626.33 423.97 626.27 422.65 626.24 421.94 626.18 420.62 627.31 421.21 627.89 421.51 628.84 422.01ZM626.04 428.64C628.62 429.95 629.42 432.19 628.27 434.9 627.56 436.57 626.62 438.2 625.51 439.63 620.7 445.84 615.25 451.43 608.99 456.22 605.51 458.88 602.11 461.66 598.65 464.4 596.77 463.65 595.99 462.36 595.44 460.93 594.87 459.44 594.4 457.92 593.91 456.4 591.85 450.06 591.53 449.57 586.39 445.25 590.15 442.9 593.83 440.52 597.58 438.28 602.65 435.25 607.78 432.31 612.9 429.36 613.73 428.88 614.67 428.59 615.46 428.07 619.14 425.62 622.64 426.91 626.04 428.64ZM619.53 408.26C621.42 409.04 622.29 410.55 623.41 412.13 621.92 411.61 620.76 411.2 619.36 410.71 619.4 410.11 619.46 409.29 619.53 408.26ZM617.4 394.25C617.31 393.25 617.22 392.11 617.1 390.73 619.24 391.71 620.48 393.21 621.54 394.77 620.11 394.59 618.84 394.43 617.4 394.25ZM625.16 403.67C623.47 404.64 622.61 403.11 621.13 402.39 624.24 400.66 625.15 401.03 625.16 403.67ZM620.94 385.12C621.22 383.67 622.49 383.76 624 383.84 623.41 384.89 622.82 385.93 622.25 386.94 620.83 386.72 620.79 385.95 620.94 385.12ZM617.67 368.34C618.71 369.1 619.52 369.55 620.13 370.19 620.39 370.47 620.44 371.34 620.21 371.58 619.95 371.85 619.19 371.9 618.77 371.73 617.5 371.23 617.61 370.06 617.67 368.34ZM617.13 378.4C617.33 377.29 618.37 377.43 619.67 377.36 619.37 378.44 619.16 379.17 618.95 379.92 617.73 379.89 616.93 379.49 617.13 378.4ZM617.3 417.12C618.55 418.5 618.57 419.83 617.25 421.12 616.12 422.24 614.91 423.33 613.58 424.19 603.71 430.55 593.8 436.85 583.89 443.15 583.34 443.5 582.68 443.67 582.07 443.93 581.94 443.74 581.81 443.55 581.68 443.36 583 440.73 584.34 438.11 585.64 435.47 586.55 433.61 587.36 431.69 588.31 429.86 588.74 429.04 589.32 428.22 590.02 427.63 595.93 422.55 602.6 418.62 609.39 414.85 611.61 413.62 613.47 413.85 615.33 415.38 616 415.94 616.72 416.47 617.3 417.12ZM588.46 417.73C593.25 412.26 598.05 406.8 603.5 401.98 604.99 400.66 606.59 399.44 608.25 398.35 610.73 396.72 611.84 397.23 612.78 400.09 613.51 402.32 613.15 404.5 612.66 406.7 612.06 409.4 610.78 411.44 608.14 412.75 603.14 415.24 598.25 417.95 593.37 420.66 591.51 421.69 589.8 422.99 587.89 424.25 587.73 423.28 587.52 422.42 587.47 421.55 587.4 420.19 587.48 418.85 588.46 417.73ZM587.97 410.65C588.31 407.47 588.62 407.11 590.85 407.38 591.01 409.25 591.01 409.25 587.97 410.65ZM594.02 399.64 594.02 395.45C595.73 395.46 596.22 395.82 595.88 396.99 595.59 398 594.97 398.92 594.5 399.87 594.34 399.8 594.18 399.72 594.02 399.64ZM599.7 395.12C600.24 394.11 601.06 393.13 601.97 392.44 604.26 390.72 606.67 389.16 609.04 387.55 609.43 387.28 609.84 387.03 610.27 386.81 610.93 386.47 611.64 386.17 612.2 386.9 612.71 387.57 612.88 388.33 612.28 389.1 611.1 390.61 609.87 392.08 608.8 393.66 606.93 396.43 603.99 396.81 601.11 397.35 599.68 397.32 599.01 396.41 599.7 395.12ZM613.72 365.81C611.49 365.6 611.43 365.53 611.03 363.39 612.47 363.46 612.47 363.46 613.72 365.81ZM608.63 370.73C608.86 369.55 609.97 369.6 611.3 369.88 611.14 370.77 610.99 371.63 610.82 372.54 609.45 372.42 608.37 372.06 608.63 370.73ZM605.82 365.45C606.06 365.47 606.31 365.49 606.55 365.5 606.68 366.08 607.08 366.8 606.87 367.23 606.36 368.31 605.33 367.98 604.13 367.67 604.76 366.86 605.29 366.15 605.82 365.45ZM598.01 374.53C598.26 373.13 599.54 373.57 600.91 373.21 600.4 374.43 600.06 375.24 599.74 376.01 598.54 375.95 597.85 375.41 598.01 374.53ZM601.98 379.43C605.24 376.97 609.24 376.06 613.1 374.95 613.25 375.12 613.4 375.29 613.56 375.46 612.9 376.71 612.31 378 611.57 379.2 608.85 383.55 605.13 386.82 600.62 389.23 599.87 389.63 599.05 389.97 598.42 389.34 597.98 388.9 597.64 388.06 597.72 387.47 598.19 384.3 599.43 381.36 601.98 379.43ZM597.23 379.34C596.14 381.94 595.64 382.27 593.3 382.07 593.65 379.96 595.31 379.71 597.23 379.34ZM587.59 393C587.13 390.87 587.22 390.6 588.7 389.66 589.36 389.25 590.03 388.86 590.9 388.34 591.42 391.67 590.69 392.64 587.59 393ZM586.89 382.39C587.12 381.52 587.55 380.78 588.64 380.83 589.18 380.85 589.72 380.88 590.26 380.91 590.36 381.11 590.46 381.3 590.56 381.5 589.75 382.16 589 382.91 588.11 383.44 587.39 383.86 586.67 383.22 586.89 382.39ZM585.08 399.23C586.31 399.93 587 400.9 586.8 402.08 586.61 403.23 585.54 402.94 584.31 402.77 584.59 401.52 584.82 400.46 585.08 399.23ZM583.78 409.74C584.58 411.66 584.58 411.66 582.96 412.55 582.39 410.99 582.39 410.99 583.78 409.74ZM581.21 393.8 581.66 393.95C581.59 394.89 581.53 395.83 581.43 397.22 580.58 396.66 580.14 396.37 579.62 396.03 580.24 395.16 580.72 394.48 581.21 393.8ZM577.67 402.45C579.88 402.84 580.37 403.55 579.89 405.25 579.41 406.97 577.97 407.66 576.16 408.3 576.66 406.34 577.17 404.38 577.67 402.45ZM575.1 413.7C575.29 413.76 575.47 413.81 575.66 413.87 576.06 416.08 575.98 416.24 573.54 417.53 574.16 415.99 574.63 414.85 575.1 413.7ZM582.16 415.64C583.49 417.18 583.64 418.97 583.97 420.62 584.99 425.69 584.37 430.6 582.09 435.27 581.08 437.35 579.99 439.39 578.9 441.42 578.52 442.14 578.02 442.69 577.03 442.62 574.18 442.4 571.32 442.26 568.46 442.08 568.31 442.07 568.16 441.98 567.62 441.8 569.82 431.57 573.14 422.14 582.16 415.64ZM567.03 459.43C567.22 458.83 567.55 458.28 568.04 457.24 568.67 458.35 569.08 459.08 569.55 459.9 569.12 460.28 568.82 460.73 568.43 460.84 567.35 461.15 566.71 460.48 567.03 459.43ZM563.52 423.47C566.42 424.9 566.53 425.28 564.61 426.84 563.16 426.15 563.44 424.88 563.52 423.47ZM556.6 414.76C558.62 416.41 558.62 416.41 557.71 418.23 555.96 417.61 556.73 416.22 556.6 414.76ZM548.82 406.81C550.16 407.28 550.71 408.36 550.95 410.22 549.59 409.2 548.65 408.5 547.47 407.61 548.13 407.21 548.57 406.73 548.82 406.81ZM542.14 392.36C544.37 394.85 545.35 397.35 545.45 400.25 544.65 398.39 543.08 397.69 541.23 397.24 541.51 395.71 541.78 394.3 542.14 392.36ZM533.14 386.07C535.21 386.88 536.41 388.18 537.2 389.81 537.77 391 536.93 391.98 535.57 391.91 534.15 391.83 533.21 390.95 533.15 389.55 533.1 388.48 533.14 387.41 533.14 386.07ZM526.23 377.45C528.02 378.15 528.32 378.52 528.31 380.08 528.31 381.41 528.31 382.75 528.31 384.26 524.86 381.35 524.57 380.35 526.23 377.45ZM519.68 384.42C519.37 385.33 518.73 386.13 518.13 387.16 516.84 384.79 516.43 381.35 516.22 372.34 516.97 371.78 517.5 372.37 517.76 372.86 518.54 374.32 519.39 375.8 519.83 377.37 520.48 379.69 520.46 382.11 519.68 384.42ZM517.09 358.77C518.49 359.44 518.47 360.82 518.58 362.02 518.71 363.48 518.61 364.97 518.61 366.65 515.76 364.78 515.22 361.82 517.09 358.77ZM507.18 346.67C509.32 347.15 509.93 349.05 508.81 351.72 507.72 350.21 506.74 348.68 507.18 346.67ZM495.64 329.34C496.01 328.1 496.84 328.33 497.86 328.65L497.86 332.61C495.65 331.37 495.23 330.7 495.64 329.34ZM499.38 346.12C498.55 344.63 497.69 343.16 496.92 341.65 496.42 340.68 496.84 339.89 497.79 338.88 498.46 341.55 499.03 343.81 499.61 346.07 499.53 346.09 499.45 346.1 499.38 346.12ZM501.31 335.93C503.53 337.29 503.83 338.49 502.89 341.8 500.55 340.26 501.68 338.02 501.31 335.93ZM507.67 369.76C507.25 369.19 506.92 368.54 506.63 367.88 504.87 363.83 503.99 359.54 503.31 355.21 503.25 354.83 503.36 354.43 503.4 353.86 505.29 354.37 506.61 355.23 507.68 356.45 509.83 358.9 511.24 361.73 511.89 364.92 512.24 366.64 511.84 368.28 510.88 369.71 509.83 371.26 508.77 371.25 507.67 369.76ZM508.56 383.2C508.27 381.67 508.81 379.96 509.07 378.35 509.11 378.13 509.72 377.8 509.99 377.86 510.38 377.94 510.85 378.26 511.03 378.61 511.23 379 511.22 379.55 511.15 380 510.78 382.53 511.34 384.88 512.36 387.17 512.51 387.5 512.56 387.88 512.8 388.78 510.59 387.04 508.97 385.4 508.56 383.2ZM518.28 403.15C516.76 400.9 515.45 398.58 514.8 395.78 516.69 395.3 518.51 394.95 520.51 395.74 520.66 398.3 520.81 400.87 520.97 403.57 519.82 404.35 519.04 404.27 518.28 403.15ZM522.06 372.57C522.02 371.64 522.82 371.12 524.69 371.01 524.59 372.02 524.49 372.99 524.39 373.94 522.86 373.95 522.1 373.47 522.06 372.57ZM523.32 385.8C523.53 385.73 523.74 385.66 523.95 385.59 524.77 386.43 525.65 387.21 526.39 388.11 527.65 389.64 528.71 391.35 530.07 392.79 531.75 394.57 532.74 396.57 532.67 399.01 532.51 404.59 532.3 410.17 532.1 415.75 532.06 416.91 531.62 417.89 530.83 418.77 529.39 418.52 528.94 417.41 528.6 416.42 527.64 413.64 526.54 410.85 526.02 407.98 524.94 402.03 524.16 396.02 523.34 390.02 523.16 388.64 523.32 387.21 523.32 385.8ZM539.74 457.54C538.59 454.22 537.32 450.94 536.39 447.56 533.88 438.49 530.16 429.95 525.5 421.82 524.45 419.98 523.61 418.16 523.73 415.72 524.11 416.16 524.44 416.42 524.6 416.76 526.81 421.37 529.03 425.97 531.18 430.6 533.57 435.74 535.89 440.91 538.24 446.07 540.18 450.32 541.7 454.66 540.74 459.6 540.4 458.92 539.99 458.26 539.74 457.54ZM541.83 476.25C541.43 473.87 541.03 471.5 540.64 469.13 540.79 469.09 540.93 469.05 541.08 469.02 541.79 470.99 542.54 472.94 543.2 474.93 543.5 475.88 543.42 475.9 541.83 476.25ZM540.56 438.4C540.09 437.39 539.64 436.63 539.38 435.81 538.09 431.71 536.83 427.6 535.61 423.47 534.94 421.22 535.04 418.96 535.39 416.62 536.03 412.31 536.33 407.94 536.78 403.46 537.05 403.64 537.47 403.81 537.71 404.12 539.52 406.48 541.65 408.49 544.16 410.12 546.33 411.52 547.18 413.6 546.76 416.11 545.9 421.29 545.03 426.47 544 431.62 543.4 434.62 542.37 436.38 540.56 438.4ZM554.77 483.17C554.56 484.04 554.04 484.84 553.62 485.75 550.94 482.91 549.79 479.64 549.13 476.16 547.74 468.89 546.43 461.6 544.97 454.34 544.34 451.19 544.89 448.14 545.27 445.07 545.8 440.87 546.97 436.85 548.31 432.82 549.6 428.92 550.03 424.74 550.84 420.68 551.02 419.77 551.2 418.86 551.46 417.59 552.59 418.49 553.51 419.11 554.29 419.87 557.21 422.74 559.58 426.05 561.66 429.57 563.33 432.38 563.72 435.46 563.07 438.58 562.1 443.26 560.69 447.86 559.87 452.56 558.49 460.4 557.44 468.3 556.2 476.17 555.82 478.51 555.32 480.84 554.77 483.17ZM560.87 496.98C559.34 496.72 558.75 496.02 558.89 494.53 559.22 490.96 559.53 487.37 560.06 483.83 560.33 482.06 560.79 480.18 563.11 479.27 565.96 481.86 569.56 482.77 573.03 483.94 574.99 484.6 577.01 485.18 578.87 486.06 580.21 486.69 581.38 487.71 582.54 488.66 583.14 489.15 583.25 489.88 582.68 490.58 581.12 492.5 579.67 494.51 578 496.33 577.17 497.24 576.04 497.97 574.91 498.48 574.18 498.81 573.03 498.94 572.39 498.58 569.71 497.07 566.78 497.58 563.96 497.27 562.93 497.16 561.88 497.15 560.87 496.98ZM609.39 540.84C603.27 536.36 597.06 531.99 591.19 527.2 585.07 522.21 579.24 516.86 573.43 511.51 570.28 508.61 567.22 505.57 565.3 501.38 567.11 500.94 568.58 501.1 570.04 502.46 574.65 506.76 579.33 511 584.07 515.15 592.61 522.62 601.72 529.37 611.09 535.78 612.54 536.77 613.91 537.69 614.4 539.65 614.7 540.87 615.77 541.91 616.63 543.24 613.61 543.39 611.39 542.3 609.39 540.84ZM609.87 531.02C603.1 526.22 596.29 521.46 589.72 516.4 584.73 512.56 580.07 508.29 575.3 504.18 574.54 503.53 573.95 502.68 573.41 501.72 576.77 502.06 580.06 501.46 583.23 503.4 589.65 507.32 595.82 511.57 601.78 516.12 605.71 519.12 609.49 522.32 613.34 525.42 614.5 526.36 615.29 527.4 615.35 529.03 615.39 530.1 615.98 531.15 616.28 532.23 616.44 532.81 616.53 533.41 616.72 534.32 613.87 533.65 611.8 532.39 609.87 531.02ZM584.68 498.25C586.56 497.45 588.22 498.09 589.78 498.43 593.9 499.34 597.96 500.52 602.07 501.52 604.71 502.17 606.97 503.52 608.86 505.38 613.38 509.83 616.51 515.15 618.36 521.22 618.51 521.72 618.5 522.26 618.57 522.86 612.24 521.11 587.29 503.01 584.68 498.25ZM616.08 494.61C618.51 494.97 618.51 494.97 618.76 498.49 617.12 497.7 616.42 496.44 616.08 494.61ZM621.78 543.71C619.81 542.22 620.37 540.44 620.58 538.38 622.45 539.94 622.39 541.61 621.78 543.71ZM620.97 507.88C621.16 507.79 621.36 507.69 621.55 507.6 622.15 508.36 622.82 509.08 623.33 509.9 623.76 510.58 623.63 511.45 622.78 511.58 622.28 511.65 621.34 511.12 621.17 510.65 620.88 509.8 621.01 508.8 620.97 507.88ZM623.26 531.78C620.57 530.75 622.41 528.47 621.18 526.65 624.18 528.78 624.38 529.35 623.26 531.78ZM623.58 518.99C622.07 519.1 621.34 518.45 621.39 517.26 621.44 515.97 622.4 515.62 623.94 515.8 623.81 516.98 623.7 517.95 623.58 518.99ZM627.28 540.05C627.16 540.52 626.37 540.83 625.47 541.53L625.47 537.92C625.66 537.87 625.86 537.82 626.05 537.78 626.77 538.36 627.53 539.04 627.28 540.05ZM627.82 527.29C627.15 525.54 626.37 524.26 627.1 522.69 629.04 523.79 629.17 524.44 627.82 527.29ZM636.87 531.12C632.9 527.46 632.25 525.93 632.09 519.96 635.62 521.06 639.08 522.07 642.49 523.22 643.7 523.63 643.89 524.42 643.16 525.47 642.63 526.24 641.95 526.94 641.23 527.56 639.86 528.76 638.41 529.87 636.87 531.12ZM643.38 532.03C642.33 531.85 641.29 531.59 641.62 530.48 641.91 529.47 642.9 529.49 644.01 530.1 643.76 530.85 643.57 531.43 643.38 532.03ZM644.53 535.33C645.44 534.35 646.28 533.45 647.25 532.41 647.89 532.76 648.61 533.15 649.68 533.73 647.93 534.95 646.31 535.28 644.53 535.33ZM646.13 527.26C646.75 525.08 647.86 523.61 649.5 522.34L649.5 526.31C648.64 526.55 647.54 526.86 646.13 527.26ZM652.65 515.48C650.62 517.61 648.43 519.58 645.96 521.96 642.74 520.33 639.5 518.79 636.36 517.09 633.49 515.54 630.72 513.79 627.88 512.18 626.7 511.51 625.96 510.61 625.63 509.27 624.9 506.33 624.33 503.39 624.41 500.26 626.22 500.18 627.59 501.04 629.02 501.67 633.46 503.64 637.86 505.71 642.34 507.59 644.75 508.6 647.3 509.3 649.79 510.13 650.24 510.28 650.72 510.35 651.18 510.49 654.58 511.49 655.06 512.95 652.65 515.48ZM657.03 527.33C656.1 528.64 654.95 528 653.46 527.5 654.56 526.44 655.48 525.55 656.4 524.66 657.59 525.57 657.65 526.46 657.03 527.33ZM654.53 519.85C654.95 518.37 655.89 518.49 657.23 518.54 657.01 519.52 656.86 520.18 656.65 521.13 655.81 520.63 655.17 520.24 654.53 519.85ZM654.55 508.8C653.49 508.23 652.44 507.7 651.41 507.11 642.73 502.12 633.6 498.15 624.07 495.11 622.94 494.75 622.13 494.16 621.42 493.22 620.23 491.65 618.92 490.17 617.45 488.39 620.18 488.39 622.59 488.14 624.93 488.43 635.14 489.7 645.31 491.22 655.22 494.09 656.52 494.47 657.77 494.99 659.04 495.47 659.76 495.74 660.17 496.19 660.26 497.05 660.77 502.09 658.76 505.86 654.55 508.8ZM662.65 508.57C662.82 508.72 662.99 508.88 663.16 509.03 662.4 510.54 661.64 512.06 660.63 514.07 660.53 512.25 660.47 511.03 660.38 509.46 661.01 509.22 661.83 508.89 662.65 508.57ZM664.02 521.51C663.61 522.14 662.69 522.53 661.92 522.79 661.55 522.92 661 522.51 660.52 522.34 660.72 521.8 660.77 521.05 661.16 520.76 662.39 519.85 663.75 519.11 665.34 518.13 664.89 519.36 664.64 520.56 664.02 521.51ZM664.53 502.03C663.53 501.21 664.38 500.35 664.99 499.11 665.66 500.07 666.13 500.74 666.56 501.35 666.01 502.43 665.17 502.55 664.53 502.03ZM666.47 474.12C666.8 472.78 667.87 472.95 669.2 473.14 669.08 474.13 668.99 474.88 668.9 475.61 667.21 475.56 666.25 475 666.47 474.12ZM670.4 511.77C670.06 512.01 669.47 512.22 669.13 512.08 668.8 511.95 668.45 511.37 668.45 510.99 668.45 510.07 668.64 509.15 668.82 507.73 669.68 508.66 670.31 509.21 670.78 509.88 671.25 510.56 671.06 511.3 670.4 511.77ZM671.58 497.03C669.82 495.47 670.56 494 671.21 492.42 672.97 494.26 673 494.67 671.58 497.03ZM673.82 480.94C671.74 479.34 671.58 477.01 673.41 474.99 675.03 476.92 675.15 478.67 673.82 480.94Z"/></g><g><path d="M330.77 245C329.4 243.35 327.46 243.7 325.64 243.74 325.56 243.74 325.48 243.72 325.4 243.71 321.45 243.35 317.6 243.9 313.79 244.92 305.37 247.17 297.67 251.03 290.24 255.45 282.53 260.04 275.33 265.34 268.36 270.99 259.86 277.87 252.35 285.68 245.93 294.52 233.9 311.08 225.02 329.25 218.33 348.54 218.13 349.12 217.89 349.68 217.64 350.3 215.85 348.87 215.71 348.89 215.28 346.69 214.74 343.95 213.4 341.82 211.17 340.19 210.4 339.63 209.72 338.93 208.95 338.36 208.3 337.88 208.04 337.34 208.16 336.52 208.43 334.62 208.65 332.72 208.87 330.82 209.4 326.14 210.16 321.47 210.39 316.78 210.67 310.95 210.58 305.11 210.5 299.27 210.47 297.1 210.95 295.17 212.05 293.35 212.5 292.6 212.93 291.83 213.32 291.04 213.64 290.4 213.91 289.73 214.14 289.05 214.44 288.18 214.6 287.24 213.67 286.69 213 286.29 212.4 286.4 211.89 286.75 211.11 288.04 210.24 289.27 209.29 290.45 208.12 293.14 208.05 296.02 208.31 298.94 208.47 300.69 208.56 302.44 208.65 304.2 209.01 310.93 208.1 317.59 207.66 324.28 207.47 327.07 207.35 329.86 207.06 332.64 206.92 334.03 206.48 335.39 206.09 337.14 203.65 335.55 202.47 337.17 201.19 338.49 200.31 339.39 199.48 340.34 198.53 341.36 197.68 340.68 196.99 340.16 196.34 339.59 190.07 334.13 183.73 328.74 177.58 323.15 173.39 319.34 168.91 315.82 165.4 311.29 164.77 310.47 163.62 309.96 162.6 309.56 161.61 309.18 160.2 309.95 159.77 310.88 159.27 311.96 159.77 312.78 160.61 313.36 161.79 314.18 163.05 314.87 164.28 315.62 166.45 316.95 168.79 318.09 170.77 319.66 175.4 323.34 179.94 327.14 184.37 331.06 188.13 334.4 191.69 337.97 195.33 341.45 196.27 342.35 196.93 343.26 196.75 344.78 196.44 347.3 197.06 349.68 198.67 351.76 199.68 353.06 199.87 354.5 199.16 356.04 198.67 357.11 198.24 358.21 197.83 359.19 194.48 357.53 191.17 355.8 187.78 354.22 178.07 349.68 168.08 345.89 157.76 342.98 147.29 340.03 136.7 337.73 125.78 337.38 120.75 337.22 115.69 337.09 110.69 337.49 104.81 337.95 98.96 338.89 93.13 339.81 83.16 341.38 73.46 343.97 64.16 347.93 57.24 350.88 50.95 354.76 46.16 360.7 45.54 361.46 44.95 362.51 44.93 363.44 44.86 366.71 45.57 369.82 48.04 372.21 49.41 373.54 50.78 374.93 52.35 376 55.05 377.84 57.88 379.5 60.71 381.15 63.61 382.84 66.7 384.23 69.45 386.13 72.57 388.28 75.82 390.08 79.28 391.58 80.23 391.99 81.14 392.52 82 393.1 84.3 394.65 85.85 396.83 86.16 399.56 86.66 403.94 88.66 407.6 91.08 411.11 94.82 416.55 99.29 421.32 104.46 425.42 107.16 427.55 109.96 429.6 113.42 430.34 117.4 431.19 121.38 432.09 125.4 432.64 128.07 433.01 130.82 432.95 133.52 432.8 135.72 432.68 137.54 431.44 139.28 430.08 140.78 428.9 142.41 427.9 144 426.84 142.78 428.01 141.54 429.16 140.37 430.37 137.59 433.26 136.51 436.7 137.89 440.52 141.95 451.73 147.38 462.18 155.67 470.93 159.96 475.46 164.92 479.05 170.86 481.14 178.64 483.87 186.75 484.54 194.92 484.58 197.95 484.59 200.97 484.24 204 484.2 207.66 484.15 211.33 484.17 214.99 484.31 216.57 484.37 218.12 484.98 219.7 485.07 227.06 485.49 235.19 478.83 236.35 471.48 236.45 470.85 236.5 470.19 236.41 469.57 235.71 464.84 235.26 460.05 234.2 455.4 231.31 442.71 227.71 430.21 223.8 417.79 223.65 417.3 223.59 416.78 223.38 415.77 223.91 416.42 224.15 416.63 224.29 416.9 226.65 421.43 229.06 425.95 231.32 430.53 232.48 432.89 233.87 434.97 236.24 436.22 238.33 437.32 239.99 436.59 240.24 434.26 240.43 432.47 240.35 430.57 239.97 428.81 238.35 421.24 236.58 413.71 234.87 406.17 234.7 405.41 234.59 404.64 234.45 403.87 235.08 404.47 235.37 405.17 235.66 405.87 236.75 408.44 237.73 411.07 238.95 413.57 242.16 420.18 245.4 426.78 248.76 433.32 252.6 440.78 256.62 448.14 261.33 455.11 263.78 458.74 266.83 461.31 271.27 461.89 272.77 462.08 274.29 462.19 275.81 462.16 280.99 462.06 284.94 459.8 287.8 455.44 289.11 453.45 290.64 451.56 292.33 449.89 295.46 446.8 298.78 443.92 302.01 440.94 308.46 435 314.11 428.41 318.32 420.67 321.03 415.67 322.39 410.29 322.78 404.64 323.28 397.64 322.42 390.77 320.89 383.95 319.61 378.25 317.76 372.72 315.54 367.33 313.92 363.42 311 361.35 306.6 361.37 303.06 361.38 299.61 361.9 296.16 362.53 295.52 362.65 294.86 362.66 294.21 362.73 294.19 362.55 294.17 362.37 294.15 362.19 298.07 361.61 301.98 360.8 305.93 360.51 309.19 360.27 312.05 359.36 314.48 357.26 315.74 356.17 316.94 354.95 317.92 353.61 320.48 350.13 322.83 346.51 325.4 343.04 326.96 340.93 327.94 338.61 328.5 336.1 330.42 327.41 330.41 318.67 328.94 309.93 328.46 307.1 327.85 304.22 326.04 301.89 323.16 298.16 322.84 294.19 324.59 289.95 326.21 286.03 327.4 282 328.38 277.86 329.39 273.6 330.95 269.47 332.21 265.27 333.48 261.04 334.25 256.75 334.05 252.29 333.92 249.38 332.52 247.11 330.77 245ZM324.11 254.6C324.65 256.28 325.25 258.01 324.51 260.1 323.62 257.96 322.83 256.07 322.05 254.19 322.94 253.65 323.81 253.67 324.11 254.6ZM321.02 290.91C320.77 292.06 320.59 293.23 320.24 294.34 319.95 295.28 320.06 295.98 320.74 296.73 321.51 297.6 321.44 297.66 320.78 298.98 319.67 298.13 318.56 297.31 317.49 296.43 316.79 295.85 316.99 295.09 317.42 294.49 318.37 293.16 319.41 291.89 320.41 290.59 320.61 290.69 320.81 290.8 321.02 290.91ZM307.42 304.52C307.75 300.93 308.08 297.43 308.43 293.7 309.68 294.21 311.13 294.63 312.39 295.37 314.15 296.39 314.53 297.79 313.63 299.62 313.01 300.89 312.24 302.12 311.38 303.24 310.43 304.49 309.49 305.19 307.42 304.52ZM309.91 320.81C309.82 321.76 309.82 322.79 308.69 323.2 307.86 323.5 305.8 322.73 305.28 321.92 304.54 320.78 304.44 319.52 304.69 318.23 305.05 316.35 305.49 314.48 305.85 312.6 306.11 311.27 306.8 310.28 308.44 309.24 308.8 310.67 309.19 311.79 309.34 312.94 309.62 315.16 309.77 317.39 309.95 319.62 309.98 320.01 309.95 320.41 309.91 320.81ZM312.76 289.48C310.11 289.17 307.44 289.02 304.47 288.77 307.24 285.23 308.45 284.91 310.86 286.92 312.68 286.6 314.35 285.04 316.43 285.76 316.73 288.99 315.82 289.83 312.76 289.48ZM297.95 320.13C296.35 320.87 294.73 321.64 293.08 322.37 290.09 323.68 287.01 324.83 284.1 326.31 282.42 327.16 280.67 328.25 279.5 329.69 276.39 333.5 272.19 334.96 267.65 335.86 262.64 336.84 257.6 337.65 252.61 338.72 249.34 339.42 246.14 340.45 242.9 341.34 242.38 341.48 241.86 341.62 241.01 341.85 241.85 339.78 243.15 338.4 244.36 337.02 248.7 332.09 253.49 327.61 258.62 323.52 259.95 322.46 261.64 321.73 263.29 321.2 268.83 319.41 274.38 317.63 280.01 316.18 282.19 315.62 284.6 315.96 286.9 315.9 288.89 315.85 290.87 315.81 292.86 315.8 293.65 315.8 294.48 315.8 295.24 316.01 296.15 316.26 297.06 316.54 296.73 317.98 296.63 318.47 297.41 319.19 297.95 320.13ZM296.39 305.09C291.09 306.76 285.66 308.02 280.27 309.39 277.43 310.11 274.56 310.74 271.29 311.51 272.24 309.23 272.98 306.97 274.09 304.9 275.18 302.88 277.11 301.63 279.25 300.84 281.34 300.07 283.45 299.34 285.58 298.72 288.28 297.93 290.83 296.9 293.18 295.33 294.79 294.26 296.54 293.52 298.57 293.71 300.35 293.88 301.76 294.67 302.75 296.14 304.03 298.04 304 300.08 302.25 301.52 300.49 302.98 298.51 304.42 296.39 305.09ZM300 282.01C298.88 280.37 298.44 278.74 298.59 277.02 302.05 275.65 305.44 274.3 308.84 272.98 309.58 272.69 310.34 272.43 311.12 272.27 312.09 272.07 312.65 272.55 312.64 273.54 312.64 273.85 312.51 274.16 312.44 274.47 311.4 278.97 308.44 281.81 304.33 283.51 302.49 284.27 301.13 283.66 300 282.01ZM316.58 282.61C314.98 282.36 314.2 281.38 314.35 280.11 314.58 278.15 315.32 276.32 317.5 274.74 317.35 277.75 318.25 280.31 316.58 282.61ZM317.22 303.25C318.19 302.85 318.68 303.48 319.06 304.23 319.84 305.77 320.67 307.3 320.42 309.28 317.81 308.97 316.48 307.69 316.12 305.34 315.97 304.34 316.29 303.63 317.22 303.25ZM306.21 253.35C307.56 250.54 309.53 248.43 312.94 248.5 314.57 248.54 316.2 248.81 317.82 248.97 317.88 249.24 317.95 249.5 318.01 249.77 314.1 251.21 311.13 253.99 307.89 256.39 306.86 257.16 306.02 256.71 305.91 255.43 305.86 254.75 305.92 253.96 306.21 253.35ZM307.34 261.21C307.83 260.14 309.04 259.35 310.03 258.57 311.92 257.07 314.04 255.99 316.44 255.53 318.71 255.09 319.94 256.15 319.44 258.37 319.17 259.55 318.49 260.73 317.72 261.69 314.93 265.2 309.21 268.12 304.85 268.34 305.67 265.93 306.3 263.48 307.34 261.21ZM291.6 259.06C293.39 257.89 295.28 256.85 297.17 255.84 298.7 255.03 300.06 255.37 301.32 256.83 299.57 259.2 297.62 261.05 295.24 262.42 294.06 263.1 292.85 263.3 291.66 262.4 290.32 261.39 290.22 259.96 291.6 259.06ZM289.66 272.23C291.35 270.34 293.17 268.53 295.14 266.95 296.65 265.74 297.61 266.33 297.79 268.25 297.81 268.49 297.83 268.73 297.79 268.97 296.97 273.87 294.72 277.93 290.85 281.27 287.93 278.8 287.42 274.73 289.66 272.23ZM285.12 264.26C288.2 265.45 288.79 268.38 286.55 270.27 285.55 271.12 284.15 270.71 284.08 269.41 283.99 267.69 284.04 265.91 285.12 264.26ZM284.75 286.13C284.91 285.17 285.63 284.88 286.52 284.94 286.92 284.97 287.34 284.96 287.7 285.09 289.99 285.93 292.26 286.8 294.8 287.75 294.44 288.33 294.33 288.65 294.11 288.85 291.77 290.97 289.02 292.38 285.99 293.19 284.61 293.56 283.9 293.13 283.95 291.75 284.03 289.87 284.44 288 284.75 286.13ZM266.78 278.93C269.25 277.63 270.63 275.97 270.16 273.06 270.11 272.76 270.64 272.19 271.01 272.05 273.28 271.16 275.61 270.74 277.94 271.81 278.27 271.96 278.47 272.36 278.96 272.9 275.98 276.53 273.25 280.06 269.52 282.63 268.07 283.63 267.26 283.57 266.4 282.54 265.5 281.42 265.49 279.61 266.78 278.93ZM252.9 292.89C253.49 291.25 254.11 289.6 254.9 288.06 255.42 287.05 256.37 286.97 257.54 287.85 256.61 290.36 255.64 292.64 253.31 294.49 253.1 293.72 252.78 293.22 252.9 292.89ZM223.92 342.36C227.59 336.55 231.17 330.68 235.02 325 240.75 316.53 246.67 308.19 252.54 299.82 253.64 298.25 254.84 296.74 256.11 295.31 256.89 294.43 257.79 293.55 258.81 292.99 263.57 290.37 268.45 287.99 273.7 286.48 274.99 286.11 276.36 285.83 277.7 285.8 279.44 285.75 280.07 286.71 279.37 288.27 278.68 289.79 277.85 291.27 276.93 292.66 270.64 302.14 263.4 310.88 255.77 319.28 250.24 325.37 244.47 331.24 238.69 337.1 236.62 339.19 234.3 341.06 231.93 342.83 229.24 344.83 226.21 346.21 222.62 346.72 222.28 344.74 223.17 343.55 223.92 342.36ZM222.48 383.98C223.87 382.2 226.13 382.61 226.82 384.79 227.34 386.42 227.54 388.16 227.88 389.84 227.73 389.94 227.59 390.03 227.44 390.13 226.61 389.58 225.59 389.18 224.98 388.45 223.37 386.53 221.21 386.6 219.08 386.57 217.77 386.56 217.28 387.21 217.29 388.55 217.29 388.95 217.35 389.34 217.41 389.74 217.45 390.05 217.52 390.35 217.57 390.63 216.14 391.62 216.14 391.62 214.02 391.16 214.02 390.02 213.99 388.88 214.03 387.73 214.08 386.24 216.26 384.37 217.88 384.45 218.67 384.49 219.44 384.73 220.22 384.85 221.13 385.01 221.83 384.81 222.48 383.98ZM221.76 406.93C221.56 406.98 221.35 407.03 221.15 407.08L219.96 402.29C220.18 402.24 220.39 402.19 220.61 402.13 220.99 403.73 221.38 405.33 221.76 406.93ZM218.21 357.58C218.49 358.89 218.57 360.24 218.77 361.85 216.35 360.25 214.52 358.53 213.75 355.9 215.78 354.77 217.76 355.52 218.21 357.58ZM216.33 369.29C215.26 368.58 215.33 367.26 214.84 366.25 214.33 365.2 213.83 364.13 213.33 363.08 215.76 364.44 216.28 366.75 216.33 369.29ZM210.26 421.05C211.53 426.4 214.56 430.98 217.1 435.77 218.41 438.23 219.5 440.8 220.69 443.32 220.76 443.46 220.83 443.62 220.84 443.77 221.41 448.3 220.8 452.66 218.92 456.82 218.65 457.42 217.98 457.85 217.19 458.69 216.37 457.53 215.66 456.76 215.23 455.86 212.17 449.45 209.4 442.9 207.57 436.02 206.78 433.04 206.43 429.89 206.29 426.8 205.93 418.92 205.81 411.04 205.59 403.15 205.78 403.11 205.97 403.08 206.17 403.04 206.36 403.58 206.62 404.1 206.74 404.66 207.91 410.13 208.96 415.62 210.26 421.05ZM209.78 466.51C209.87 468.04 209.03 468.64 207.84 468.88 205.9 469.27 203.91 468.4 202.83 466.51L209.78 466.51ZM205.75 382.95C205.93 382.18 206.08 381.57 206.33 380.48 207.02 382.33 207.02 382.33 205.75 382.95ZM203.86 351.39C204.41 350.27 205.53 350.28 206.04 351.4 206.86 353.18 207.33 355.09 207.54 357.65 206.56 356.98 206.09 356.56 205.54 356.32 205.08 356.12 204.39 355.93 204.05 356.14 203.68 356.36 203.36 357.11 203.45 357.53 203.64 358.43 204.1 359.28 204.49 360.13 204.64 360.46 204.9 360.73 204.97 361.13 203.31 360.53 202.76 359.08 202.49 357.57 202.12 355.36 202.91 353.32 203.86 351.39ZM203.13 444.32C203.71 448.25 204.67 452.17 203.75 456.17 203.45 457.48 203.12 458.82 202.56 460.03 202.12 460.98 201.28 461.75 200.61 462.62 198.62 461.53 198.26 459.85 198.06 458.22 197.77 455.77 197.63 453.3 197.57 450.83 197.42 445.3 196.67 439.86 195.16 434.55 194.31 431.56 194.65 428.67 195.3 425.8 196.09 422.31 197.17 418.89 198.14 415.44 198.19 415.25 198.41 415.11 198.84 414.64 199.39 416.9 200.05 418.85 200.3 420.85 200.78 424.64 200.94 428.48 201.39 432.28 201.86 436.31 202.53 440.31 203.13 444.32ZM126.62 341.45C126.83 341.01 127.32 340.53 127.77 340.42 129.14 340.07 132.75 342.1 133.84 343.91 131.21 344.41 129.1 343.62 127.06 342.58 126.78 342.43 126.5 341.71 126.62 341.45ZM129.56 346.82C131.72 346.35 134.16 346.79 136.4 347.21 143.84 348.59 151.28 350.01 158.66 351.67 167.68 353.69 176.65 355.9 185.61 358.16 187.75 358.7 189.8 359.71 191.82 360.64 192.72 361.05 193.46 361.8 194.23 362.35 193.85 364.04 192.68 364.5 191.53 364.71 189.34 365.1 187.11 365.53 184.9 365.53 177.8 365.53 170.7 365.51 163.61 365.2 151.66 364.68 139.77 363.44 127.95 361.51 122.59 360.64 117.28 359.63 112.09 358.03 111.28 357.78 110.49 357.43 109.33 356.98 110.01 356.09 110.4 355.3 111.03 354.81 112.22 353.88 113.48 352.99 114.82 352.31 119.51 349.91 124.42 347.94 129.56 346.82ZM107.55 394.2C109.71 395.68 111.87 397.19 113.79 398.96 115.51 400.56 115.29 402.33 113.64 403.96 112.96 404.64 112.3 404.76 111.56 404.1 111.14 403.73 110.66 403.41 110.33 402.98 108.61 400.79 106.9 398.6 105.27 396.36 104.84 395.76 104.68 394.97 104.4 394.27 105.6 393.54 106.71 393.63 107.55 394.2ZM99.82 381.9C98.77 379.59 99.63 376.31 101.81 374.87 102.79 374.22 103.91 373.64 105.04 373.4 108.6 372.65 111.81 371.12 114.99 369.42 116.95 368.37 118.99 367.44 121.06 366.66 123.22 365.84 125.46 366.01 127.59 366.92 129.19 367.61 130.76 368.39 132.38 369.15 126.98 372.56 121.84 375.88 116.62 379.07 113.22 381.15 109.67 382.92 105.77 383.99 103.44 384.63 100.82 384.09 99.82 381.9ZM115.95 408.07C118.5 408.2 121.14 408.09 123.69 409.16 123.3 410.66 122.2 411.4 121.14 411.98 119.69 412.77 118.13 413.38 116.54 413.86 115.16 414.27 114.6 413.72 114.44 412.22 114.38 411.67 114.24 411.14 114.17 410.59 113.98 409.08 114.55 408 115.95 408.07ZM120.66 395.42C118.98 395.37 118.41 394.46 118.89 392.81 119.71 389.98 121.23 387.53 123.49 385.66 125.14 384.3 126.88 382.9 128.82 382.05 132.85 380.28 135.68 377.45 137.49 373.54 138.56 371.24 140.14 369.57 142.63 368.9 143.24 368.74 143.87 368.56 144.5 368.56 151.76 368.46 159.03 368.14 166.26 369.12 168.14 369.37 169.99 369.93 171.84 370.41 172.94 370.69 173.82 371.34 174.63 372.46 173.74 372.96 173.02 373.42 172.25 373.78 163.71 377.79 155.5 382.4 147.51 387.38 141.24 391.28 134.54 393.85 127.34 395.17 125.17 395.56 122.89 395.48 120.66 395.42ZM101.9 343.62C102.55 342.92 103.25 342.26 104.02 341.71 106.3 340.05 106.91 339.63 108.75 341.99 109.59 343.07 110.73 343.21 111.98 342.89 112.67 342.71 113.37 342.47 114.07 342.47 115.38 342.48 116.31 343.43 116.45 344.7 116.59 346 116.12 346.62 114.67 347.04 114.36 347.13 114.06 347.25 113.75 347.28 109.54 347.66 105.36 347.51 101.16 346.78 100.7 345.31 101.18 344.4 101.9 343.62ZM103.43 361.11C103.9 360.26 104.87 359.89 105.69 360.49 107.27 361.64 108.78 362.92 110.22 364.25 110.8 364.78 110.82 365.64 110.06 366.11 106.94 368.07 103.59 369.25 99.32 368.92 100.8 366.08 102.06 363.57 103.43 361.11ZM90.69 344.86C92.59 345.5 93.79 346.67 94.86 347.94 95.7 348.94 95.09 350.21 93.76 350.33 92.51 350.45 91.34 350.18 90.59 349.07 89.69 347.76 89.76 346.41 90.69 344.86ZM94.3 354.09C94.66 354.11 95.16 354.29 95.33 354.57 96.33 356.18 97.4 357.77 98.13 359.5 98.63 360.67 98.05 361.33 96.78 361.39 92.3 361.6 88.32 360.17 84.8 357.47 84.15 356.97 83.8 356.1 83.31 355.4 84.16 353.87 85.42 353.84 86.44 353.82 89.07 353.77 91.68 353.95 94.3 354.09ZM76.81 347.36C78.42 346.93 80.03 346.52 81.64 346.09 83.22 345.66 84.09 345.87 84.55 346.85 85.08 347.95 84.54 349.77 83.35 350.36 82.44 350.81 81.41 351.17 80.41 351.24 78.36 351.37 76.3 351.28 74.02 351.28 73.99 349 74.97 347.85 76.81 347.36ZM47.73 366.69C46.48 366.08 45.72 364.1 46.35 362.82 47.46 360.58 49.45 359.83 51.95 359.72 52.58 361.74 51.87 363.41 51.45 365.05 51.08 366.47 48.94 367.27 47.73 366.69ZM57.84 375.63C56.09 374.87 54.33 374.13 52.65 373.24 52.23 373.02 51.81 372.17 51.92 371.75 52.14 370.9 52.88 370.89 53.66 371.27 55.92 372.38 58.04 373.65 59.33 376.09 58.83 375.93 58.31 375.83 57.84 375.63ZM56.05 365.7C55.68 364.77 56.51 364.36 57.34 364.15 58.08 366.2 58.74 368.01 59.48 370.06 57.52 369.06 56.72 367.38 56.05 365.7ZM57.06 357.88C58.31 354.21 61.27 351.71 64.45 351.52 67.5 351.34 69.18 352.22 70.36 354.84 68.16 356.14 65.78 355.83 63.55 356.23 61.39 356.63 59.29 357.31 57.06 357.88ZM63.11 365.96C62.03 365.41 60.89 364.82 60.76 363.46 60.63 362.06 61.66 361.2 62.76 360.75 64.81 359.9 66.91 359.08 69.06 358.6 71.11 358.14 73.12 358.44 74.96 359.8 76.21 360.72 77.76 361.26 79.43 362.09 76.62 364.31 73.6 365.44 70.4 366.12 68.29 366.57 66.17 366.98 64.03 366.22 63.73 366.11 63.39 366.1 63.11 365.96ZM70.24 381.57C68.79 381.64 67.26 381.54 66.47 380.08 65.63 378.54 65.66 376.92 66.67 375.23 69.03 375.77 70.34 377.32 71.59 378.82 72.52 379.94 71.71 381.5 70.24 381.57ZM80.27 380.52C80.05 380.72 79.16 380.48 78.82 380.17 77.42 378.91 76.11 377.55 74.39 375.85 76.74 375.37 78.28 375.74 79.56 376.78 80.19 377.29 80.69 378.12 80.92 378.9 81.05 379.37 80.67 380.16 80.27 380.52ZM76.89 371.08C76.74 370.93 76.68 370.67 76.52 370.35 77.56 368.83 79.22 368.25 80.81 367.57 83.65 366.34 86.49 365.13 89.45 363.86 91.17 365.03 92.54 368.32 91.88 370.34 91.67 370.97 91.17 371.6 90.64 372.02 87.19 374.76 80.05 374.25 76.89 371.08ZM88.92 391.99C88.67 393.05 88.56 394.15 88.36 395.33 87.47 395.62 86.71 395.18 86.87 394.28 87.17 392.59 86.07 392.06 85 391.38 84.21 390.88 83.44 390.37 82.66 389.86 82.73 389.62 82.8 389.38 82.87 389.14 84.47 389.35 86.09 389.46 87.66 389.81 88.7 390.04 89.19 390.82 88.92 391.99ZM87.89 382.84C85.95 385.35 85.04 385.43 82.44 383.02 83.36 381.45 84.84 380.98 86.2 380.35 86.85 380.04 87.62 379.83 87.54 378.91 87.39 377.04 88.76 376.63 90.09 376.35 90.97 376.17 91.92 376.32 93.27 376.32 92.62 377.16 92.28 377.64 91.9 378.1 90.57 379.67 89.16 381.2 87.89 382.84ZM92.54 405.85C93.02 405.55 93.39 405.25 93.81 405.07 96.62 403.86 97.48 404.31 98.06 407.25 98.42 409.07 98.74 410.89 99.09 412.76 96.16 412.72 93.44 409.8 92.54 405.85ZM93.6 396.14C94.3 395.58 95.09 395.84 95.72 396.51 97.32 398.25 97.23 400.3 95.36 402.58 93.93 401.25 93.49 399.46 93.02 397.72 92.9 397.27 93.22 396.45 93.6 396.14ZM98.76 391.93C97.42 391.87 96.07 391.59 94.78 391.22 91.97 390.41 91.36 389.13 92.14 386.11 92.45 384.92 93.25 383.86 94.05 382.32 95.93 385.92 99.05 387.43 101.56 389.51 100.93 391.44 100.39 392 98.76 391.93ZM103.08 408.49C103.26 407.96 103.81 407.33 104.32 407.18 105.7 406.77 106.72 407.68 107.68 408.53 108.52 409.27 108.55 410.21 108.13 411.14 107.43 412.69 106.19 413.76 104.76 414.96 104.11 413.34 103.48 411.99 103.05 410.57 102.85 409.93 102.87 409.12 103.08 408.49ZM114.58 424.73C114.43 425.62 114.24 426.75 113.63 427.24 113.18 427.6 111.92 427.35 111.24 426.97 108.3 425.35 105.94 423.07 104.01 420.21 106.05 419.03 107.64 419.73 109.18 420.6 110.55 421.37 111.86 422.23 113.23 423.01 113.94 423.41 114.74 423.79 114.58 424.73ZM111.8 416.75C113.34 416.17 114.86 416.46 116.34 416.97 116.72 417.1 117.04 417.54 117.27 417.92 117.7 418.63 118.04 419.39 118.47 420.24 115.47 421.46 112.34 419.86 111.8 416.75ZM130.69 426.66C127.33 427.92 123.92 427.99 120.56 426.52 120.45 426.47 120.4 426.27 120.19 425.91 120.41 425.61 120.53 425.27 120.78 425.12 123.22 423.58 125.87 422.58 128.73 422.25 129.32 422.18 130.15 422.27 130.53 422.63 131.18 423.24 131.83 424.1 131.96 424.93 132.04 425.45 131.28 426.44 130.69 426.66ZM135.09 420.04C133.37 419.21 131.81 418.46 130.26 417.71 131.39 416.26 133.27 415.92 134.68 416.94 136.04 417.9 136.15 418.58 135.09 420.04ZM130.47 414.2C129.27 414.47 128.07 414.79 126.87 415.08 126.74 414.94 126.62 414.79 126.49 414.65 126.94 413.69 127.3 412.68 127.86 411.79 130.69 407.3 134.31 403.46 137.99 399.67 144.72 392.74 153 388.06 161.53 383.86 172.57 378.42 184.08 374.12 195.94 370.79 196.92 370.51 197.98 370.38 198.99 370.4 200.98 370.44 201.63 371.5 200.56 373.22 199.47 374.97 198.2 376.65 196.79 378.16 184.64 391.22 170.09 400.91 154.04 408.47 150 410.37 145.82 411.7 141.2 411.92 137.59 412.1 134.04 413.39 130.47 414.2ZM165.3 418.91C166.59 417.91 167.91 416.94 169.22 415.96 169.36 416.12 169.5 416.28 169.64 416.45 168.83 418.17 168.04 419.9 167.22 421.62 165.21 425.86 164.29 430.36 163.9 435 163.85 435.56 163.88 436.12 163.8 436.67 163.05 441.8 160.93 444.06 154.71 446.21 154.45 445.43 154 444.66 153.97 443.88 153.81 439.5 153.49 435.13 154.39 430.77 155.03 427.65 156.25 425.19 159.26 423.57 161.46 422.37 163.29 420.48 165.3 418.91ZM159.88 411.5C160.09 411.09 160.22 410.63 160.5 410.33 161.64 409.12 162.79 407.91 164.01 406.79 165.06 405.82 166.27 405.22 167.93 405.73 166.2 407.54 164.67 409.2 163.06 410.77 162.25 411.56 161.25 412.07 159.88 411.5ZM147.12 413.64C148.97 412.22 151.11 412.33 153.34 413.32 152.13 414.6 151.12 415.98 149.82 416.95 147.65 418.57 145.17 419.29 142.19 418.31 144.02 416.55 145.44 414.93 147.12 413.64ZM141.09 441.97C140.91 438.88 141.77 435.96 143.82 433.46 143.49 437.53 142.94 441.51 144.8 445.71 142.4 445.08 141.19 443.73 141.09 441.97ZM144.45 426.48C144.89 426.01 145.33 425.55 145.77 425.08 145.89 425.24 146.01 425.4 146.13 425.56 145.57 425.87 145.01 426.18 144.45 426.48ZM149.48 430.37C150.65 431.14 150.66 432.16 150.34 433.11 149.66 435.09 148.83 437.03 147.98 439.2 146.09 435.77 148.25 433.27 149.48 430.37ZM149.66 450.74C150.08 452.31 150.54 453.87 150.9 455.46 151.28 457.11 151.55 458.78 151.85 460.31 148.93 459.7 147.84 454.85 149.66 450.74ZM153.05 452C152.71 450.67 153.22 450.02 154.61 450.06 155.91 450.1 157.22 450.65 157.22 452.22 157.22 453.12 157.34 454.02 157.44 455.27 155.17 454.61 153.56 453.99 153.05 452ZM159.71 459.1C163.18 459.21 164.76 461.27 164.21 464.74 161.29 465.01 159.34 462.65 159.71 459.1ZM160.68 469.07C163.35 468.62 166.69 471.1 169.03 475.12 165.44 476.03 162.74 474.12 160.68 469.07ZM171.11 459.66C171.08 459.5 171.06 459.34 171.07 459.18 171.55 454.77 171.87 450.34 172.58 445.96 172.91 443.89 174.83 442.82 177.08 441.59 176.78 443.57 176.7 445.08 176.31 446.52 175.82 448.33 176.23 449.98 176.75 451.65 177.08 452.71 177.53 453.74 177.8 454.82 178.7 458.54 176.78 461.24 173.24 461.3 171.74 461.34 171.4 461.07 171.11 459.66ZM173.34 470.68C173.23 470.32 173.4 469.61 173.67 469.46 174.15 469.2 174.94 468.97 175.35 469.2 177.07 470.15 178.69 471.27 180.39 472.36 177.65 474.72 174.36 473.87 173.34 470.68ZM171.34 442.3C169.97 443.33 168.4 444.1 166.92 444.99 166.78 444.83 166.64 444.67 166.5 444.51 167.92 437.82 168.89 430.99 171.83 424.74 175.17 417.66 178.87 410.75 183.73 404.55 185.52 402.26 187.65 400.43 190.28 399.06 192.67 397.81 194.82 396.1 197.09 394.61 197.87 394.1 198.71 393.67 199.73 393.08 201.04 395.22 201.78 397.28 201.06 399.54 200.51 401.28 199.82 403.03 198.85 404.57 194.89 410.9 191.97 417.73 188.95 424.51 187.17 428.51 184.83 432.02 181.16 434.63 177.79 437.04 174.66 439.8 171.34 442.3ZM191.66 438.29C191.56 442.42 191.07 446.55 190.74 450.68 190.64 451.95 190.49 453.21 190.43 454.48 190.24 458.33 188.9 461.74 186.87 464.85 185.11 464.73 184.39 463.84 184.25 462.38 184.03 460.01 183.76 457.67 183.27 455.32 182.86 453.37 183.24 451.17 183.62 449.16 184.47 444.71 185.49 440.28 186.55 435.88 186.85 434.61 187.2 433.25 188.59 432.27 190.87 433.66 191.72 435.9 191.66 438.29ZM184.33 480.08C182.39 479.14 182.29 478.6 183.52 476.83 185.09 474.58 186.33 474.68 187.59 477.18 189.06 480.08 189.06 480.08 191.88 481.26 189.13 481.49 186.65 481.2 184.33 480.08ZM193.7 474.48C191.2 472.94 190.51 471.09 191.8 468.98 194.13 470.33 196.31 471.59 198.49 472.85 196.96 475.31 195.73 475.73 193.7 474.48ZM199.37 479.67C200.14 477.65 201.5 476.53 203.16 476.59 205.86 476.69 207.49 478.24 208.43 480.81 205.58 479.07 202.36 480.38 199.37 479.67ZM211.74 477.44C211.28 476.87 210.97 476.52 210.7 476.14 209.87 474.98 208.83 474.32 207.35 474.19 205.94 474.07 204.62 473.53 203.27 472.25 206.78 471.02 208.9 473.06 211.07 474.75 211.78 475.32 212.9 475.92 211.74 477.44ZM214.08 471.68C213.27 471.15 213.65 470.45 213.82 469.76 214.06 468.79 214.36 467.85 215.58 467.84 216.66 467.84 217.75 467.97 219.13 468.06 218.63 469.91 217.75 470.9 216.56 471.62 215.78 472.09 214.91 472.22 214.08 471.68ZM222.56 479.67C221.47 480.03 220.39 480.52 219.27 480.71 218.17 480.9 217.16 480.31 216.8 479.28 216.64 478.83 217.16 478 217.58 477.53 218.31 476.72 219.24 476.26 220.29 477.08 221.08 477.7 221.86 478.34 222.64 478.97 222.62 479.21 222.59 479.44 222.56 479.67ZM232.22 474.8C231.37 475.72 230.36 476.52 229.3 477.18 228.26 477.83 227.2 477.67 226.27 476.41 228.1 474.07 229.92 471.75 231.75 469.42 233.89 471.4 234.07 472.8 232.22 474.8ZM232.01 458.16C232.1 458.99 231.79 459.86 231.6 461.11 231.07 460.4 230.76 460.01 230.48 459.6 229.68 458.42 228.94 457.2 228.1 456.06 227.38 455.09 227.2 454.13 227.73 452.8 228.98 453.81 230.19 454.57 231.1 455.61 231.66 456.24 231.92 457.27 232.01 458.16ZM227.73 444.42C229.73 445.44 230.03 446.49 228.79 447.8 228.13 448.5 227.18 448.32 227 447.39 226.81 446.39 226.78 445.35 227.73 444.42ZM226.55 465.76C224.92 467.02 224.45 466.94 223.15 465.06 224.15 463.65 225.18 462.19 226.24 460.69 228.3 463.01 228.35 464.38 226.55 465.76ZM225.21 435.51C225.66 437.48 226.19 439.51 225.12 441.91 224.64 441.01 224.28 440.43 224.01 439.82 222.63 436.66 220.95 433.68 218.86 430.94 217.19 428.75 216.23 426.2 215.45 423.6 213.65 417.61 213 411.44 212.39 405.14 213.66 405.11 214.23 405.95 214.7 406.69 215.93 408.64 217.29 410.57 218.14 412.7 221.11 420.09 223.45 427.72 225.21 435.51ZM225.92 405.82C224.71 405.94 224.3 405.15 224.18 404.41 223.82 402.14 223.62 399.85 223.3 397.08 224.91 398.31 225.31 400.34 227.42 400.3 227.72 399.51 228.01 398.73 228.4 397.7 229.83 399.47 230.07 401.33 230.38 403.74 228.9 403.36 227.92 403.11 226.75 402.81 226.46 403.82 226.18 404.83 225.92 405.82ZM233.89 417.98C232.99 418.69 232.03 419.45 230.93 420.32 230.63 420.05 230.24 419.71 229.66 419.21 231.02 418.84 231.37 418.1 230.8 416.97 230.52 416.4 230.3 415.8 230.07 415.21 229.52 413.74 229.45 412.34 230.22 410.86 230.91 409.54 231.33 408.09 231.94 406.52 232.82 407.16 233.18 407.79 232.77 408.75 232.55 409.26 232.3 409.76 232.14 410.29 231.41 412.69 231.32 414.98 233.31 416.91 233.53 417.13 233.7 417.4 233.88 417.66 233.92 417.7 233.89 417.79 233.89 417.98ZM249.9 427.1C248.63 425.08 247.41 423.01 246.36 420.87 243.37 414.8 240.1 408.84 238.22 402.29 237.74 400.62 237.46 398.88 237.21 397.15 237.1 396.34 237.29 395.49 237.8 394.54 238.99 396.11 240.24 397.65 241.37 399.27 244.63 403.9 247.88 408.56 249.59 414.04 250.06 415.54 250.16 417.15 250.51 418.7 251.2 421.72 251.95 424.73 252.69 427.74 252.87 428.49 253.1 429.22 253.38 430.26 251.6 429.54 250.68 428.34 249.9 427.1ZM273.57 375.8C275.3 377.41 277.26 378.51 279.46 379.35 284.04 381.09 288.12 383.77 292.15 386.51 293.45 387.39 294.72 388.31 296 389.21 295.96 389.42 295.91 389.63 295.87 389.84 290.63 389.49 285.79 390.95 280.95 392.65 277.98 393.7 274.77 393.26 271.68 392.82 267.71 392.26 263.91 391.08 260.38 389.11 256.58 386.99 252.42 385.88 248.23 384.83 247.07 384.54 245.96 384.09 244.82 383.74 241.66 382.74 239.73 380.6 238.83 377.16 239.49 376.85 240.14 376.37 240.86 376.22 246.94 374.97 253.03 373.7 259.14 372.6 261.16 372.24 263.28 372.26 265.34 372.33 268.51 372.44 271.27 373.66 273.57 375.8ZM270.3 363.49C270.66 361.98 271.79 361.38 273.09 361.31 275.28 361.19 277.49 361.28 279.99 361.28 279.11 363.34 277.66 363.44 276.24 363.48 274.28 363.53 272.33 363.49 270.3 363.49ZM275.66 404.52C274.14 403.18 273.46 401.39 273.08 399.51 272.93 398.81 273.01 397.73 273.45 397.33 273.82 397 275 397.18 275.58 397.53 279.13 399.66 282.64 401.87 286.11 404.14 287.51 405.05 288.84 406.1 290.08 407.22 291.49 408.49 292.82 409.77 293.59 411.66 294.17 413.08 295.46 414.21 296.41 415.49 297.59 417.06 297.57 417.4 296.21 419.48 292.66 418.34 289.44 416.96 286.74 414.41 283.13 411 279.37 407.79 275.66 404.52ZM285.93 423.94C284.77 425.81 280.49 428.13 278.64 427.85 276.6 427.54 275.1 426.32 274.15 424.58 272.78 422.06 271.38 419.52 270.4 416.84 268.97 412.94 266.76 409.61 264.19 406.41 261.44 402.99 258.83 399.46 256.25 395.9 255.38 394.69 254.81 393.27 254.1 391.94 254.24 391.81 254.38 391.67 254.53 391.54 259.41 394.05 264.18 396.74 268.08 400.72 268.74 401.39 269.29 402.21 269.75 403.04 273.92 410.57 278.89 417.47 285.36 423.22 285.59 423.44 285.75 423.72 285.93 423.94ZM255.53 436.68C255.39 436.95 254.71 437.13 254.34 437.05 252.7 436.71 252.37 435.67 253.43 433.5 254.26 434.16 255.02 434.6 255.55 435.24 255.79 435.54 255.74 436.29 255.53 436.68ZM258.43 442.97C258.57 442.05 258.57 441.1 258.64 440.17 258.85 440.09 259.05 440.01 259.26 439.93 259.76 440.68 260.52 441.37 260.7 442.19 261.13 444.17 261.28 446.2 261.55 448.26 258.44 446.79 257.98 445.97 258.43 442.97ZM258.84 430.02C257.77 428.96 257.07 427.35 256.62 425.86 255.5 422.12 254.5 418.34 253.67 414.53 251.97 406.75 248.21 400.12 242.78 394.36 241.96 393.49 241.16 392.59 240.45 391.63 239.95 390.96 239.62 390.17 239.19 389.38 241.12 387.84 242.99 387.83 244.69 388.99 246.45 390.2 248.18 391.56 249.59 393.15 256.61 401.08 261.44 410.31 265.19 420.15 266.72 424.17 268.2 428.21 269.65 432.26 269.94 433.08 270.11 433.96 270.22 434.82 270.42 436.32 269.81 436.95 268.31 436.64 267.32 436.43 266.27 436.07 265.47 435.47 263.19 433.75 260.86 432.03 258.84 430.02ZM265.03 444.47C266.58 444.76 267.89 445.03 269.21 445.25 270.02 445.39 270.51 445.79 270.57 446.64 270.63 447.49 270.19 447.91 269.41 448.18 266.67 449.14 265.49 448.24 265.03 444.47ZM275.08 457.92C273.58 459.21 271.73 459.23 269.88 458.93 267.49 458.54 266.73 457.39 267.03 454.77 269.53 455.05 272.02 455.3 274.51 455.62 274.93 455.67 275.65 456.04 275.64 456.24 275.63 456.82 275.48 457.58 275.08 457.92ZM275.58 444.93C276.1 443.48 276.88 442.15 278.34 441.68 279.73 441.24 280.66 442.3 281.43 443.32 280.14 445.89 279.11 446.18 275.58 444.93ZM280.23 455.31C280.17 450.91 280.73 450.29 284.22 450.72 284.99 453.38 283.75 454.84 280.23 455.31ZM284.04 437.2C283.01 438.04 282.08 438.11 281 436.98 282.7 435.27 284.24 433.73 285.9 432.07 286.53 434.14 285.86 435.72 284.04 437.2ZM287.99 440.65C287.01 441.96 286.57 443.25 286.85 444.85 286.92 445.26 286.75 445.71 286.64 446.45 286.14 446.05 285.71 445.89 285.61 445.61 284.8 443.29 286.63 438.18 288.71 436.87 288.88 436.76 289.14 436.8 289.89 436.69 289.15 438.27 288.77 439.61 287.99 440.65ZM291.47 445.79C290.42 444.16 290.61 441.72 292.13 439.93 293.48 438.34 295.15 437.99 297.36 438.91 295.35 441.25 293.38 443.55 291.47 445.79ZM297.87 431.16C297.15 433.66 296.1 434.21 293.41 433.49 294.17 430.83 294.88 428.35 295.58 425.87 298.16 426.66 298.75 428.11 297.87 431.16ZM296.3 405.96C295.76 405.19 295.41 404.27 295.09 403.37 294.3 401.1 292.9 399.34 290.9 398.02 289.92 397.38 289.02 396.62 287.85 395.74 290.87 394.47 293.35 394.63 295.64 396.56 297.83 398.41 300.08 400.19 302.19 402.12 303.28 403.11 304.14 404.35 305.17 405.57 304.48 406.33 304.18 406.7 303.84 407.03 300.8 410.01 298.21 408.67 296.3 405.96ZM308.65 427.89C307.98 430.54 306.2 432.41 304.14 434.16 305.09 432.49 305.11 430.89 304.25 429.2 303.95 428.6 303.88 427.81 303.92 427.13 304 425.79 304.57 425.38 305.93 425.52 306.4 425.57 306.88 425.62 307.34 425.72 308.76 426.04 309.01 426.46 308.65 427.89ZM306.07 420.22C306.56 418.24 307.01 416.5 307.43 414.75 307.63 413.92 307.95 413.18 308.93 413.23 310.09 413.29 310.19 414.22 310.28 415.12 310.59 418.55 309.63 419.81 306.07 420.22ZM310.87 384.83C312.78 386.65 312.88 387.96 311.43 391.05 309.75 390.7 309.05 389.26 308.69 387.95 308.26 386.43 309.63 385.65 310.87 384.83ZM312.56 403.14C309.76 400.67 309.64 397.88 312.26 395.92 314.72 398.47 314.84 401.38 312.56 403.14ZM316.08 413.9C315.13 410.13 315.98 405.28 317.95 403.72 320.06 408.61 319.38 412.02 316.08 413.9ZM318.54 391.33C316.92 388.42 315.28 385.47 313.63 382.51 318.27 384.91 319.76 387.95 318.54 391.33ZM313.92 370.07C315.13 371.59 315.09 373.4 314.01 375.27 312.79 373.45 311.73 371.72 310.52 370.1 309.32 368.49 307.1 367.87 305.9 365.43 309.23 366.5 311.99 367.65 313.92 370.07ZM307.42 373.48C306.7 373.1 306.33 372.9 305.96 372.71 304.7 372.06 303.45 371.37 302.16 370.78 301.03 370.26 300 369.73 299.97 367.93 303.2 368.81 306.09 369.67 307.42 373.48ZM294.54 370.25C297.56 371.5 299.84 373.8 302.03 376.13 303.87 378.09 305.79 380.03 306.99 382.47 304.06 385.38 298.38 385.87 295.28 383.48 293.76 382.31 292.37 380.98 290.88 379.77 287.5 377.02 283.78 374.89 279.66 373.46 278.54 373.07 277.44 372.62 276.33 372.2 276.33 372.01 276.32 371.82 276.32 371.63 277.3 371.42 278.27 371.08 279.25 371.02 283.07 370.76 286.87 370.44 290.62 369.56 291.82 369.28 293.33 369.75 294.54 370.25ZM286.07 358.22C287.22 355.21 289.1 353.99 292.11 354.09 293.67 354.15 295.24 353.97 296.79 353.9 295.35 357.66 292.37 359.07 286.07 358.22ZM303.5 350.14C301.81 349.74 301.49 349.25 301.8 347.55 302.13 345.68 303.49 344.71 305.5 344.92 304.82 346.67 304.16 348.41 303.5 350.14ZM302.76 343.04C297.05 347.1 290.78 350.05 284.08 352.03 278.82 353.59 273.45 354.82 268.24 356.53 263.7 358.01 259.32 359.98 254.85 361.68 251.01 363.14 247.02 363.8 242.91 363.82 239.24 363.84 235.57 364.1 231.91 364.04 229.78 364.01 227.63 363.65 225.53 363.26 224.66 363.1 223.88 362.49 223.02 362.07 223.41 360.3 224.4 359.29 225.49 358.35 229.1 355.22 233.31 353.06 237.67 351.3 245.21 348.25 252.86 345.48 260.48 342.64 264.37 341.19 268.3 339.89 272.19 338.45 275.54 337.21 279 336.87 282.53 336.8 289.26 336.67 295.91 337.25 302.47 338.79 303.37 339 304.23 339.37 305.78 339.9 304.49 341.27 303.75 342.33 302.76 343.04ZM304.54 334.15C304.75 333.65 304.85 333.1 305.15 332.7 306.31 331.19 307.47 329.68 308.75 328.28 310.2 326.69 311 326.8 312.36 328.54 312.41 328.6 312.44 328.68 312.48 328.74 314.28 331.11 314.14 331.77 311.53 333.17 309.22 334.41 307.02 334.74 304.54 334.15ZM310.78 351.91C310.38 352.08 309.53 351.76 309.16 351.39 308 350.27 308.04 348.24 309.56 347.23 311.71 345.8 314.12 344.74 316.46 343.62 316.96 343.38 317.66 343.59 318.75 343.59 317.05 347.8 314.4 350.35 310.78 351.91ZM318.82 334.54C318.36 336.27 317.71 337.85 315.7 338.39 315.37 337.07 315.09 335.96 314.78 334.71 315.66 333.42 316.49 331.91 318.07 330.9 319.34 332.07 319.16 333.29 318.82 334.54ZM316.88 324.26C315.68 323.81 315.39 323.02 315.61 321.51 315.84 319.97 316.73 318.67 317.72 318.61 318.87 318.54 319.77 319.16 320.23 320.14 320.89 321.56 321.36 323.07 321.94 324.61 320.06 325.23 318.44 324.85 316.88 324.26ZM325.09 338.91C324.78 339.72 324.25 340.47 323.09 340.03 321.69 339.51 320.79 338.55 321.07 337.48 321.67 335.19 322.3 332.88 323.12 330.66 323.54 329.52 324.36 328.49 326 328.1 326.63 331.88 326.43 335.44 325.09 338.91ZM325.79 311.87C326.37 314.25 326.6 316.7 324.83 319.48 323.28 316.96 321.94 314.84 320.7 312.67 320.53 312.37 320.72 311.76 320.91 311.37 321.07 311.04 321.41 310.74 321.74 310.54 324.66 308.75 325.18 309.4 325.79 311.87ZM323.43 276.71C321.01 275.31 320.8 272.23 322.83 269.15 324.83 269.57 325.93 270.54 326.16 272.23 326.47 274.47 325.1 275.7 323.43 276.71ZM326.5 250.46C325.21 249.59 324.04 248.53 322.75 247.49 324.23 245.79 325.85 245.15 327.77 245.14 328.81 245.14 329.59 245.62 330.16 246.46 331.01 247.71 331.02 249.06 330.18 249.97 329.27 250.97 327.69 251.27 326.5 250.46ZM328.73 264.28C328.51 264.22 328.3 264.16 328.08 264.1 328.01 261.48 328.58 258.98 329.6 256.56 329.88 255.9 330.36 255.44 331.07 255.84 331.4 256.02 331.82 256.67 331.72 256.92 330.78 259.39 329.74 261.83 328.73 264.28Z"/></g><g><path d="M639.78 161.09C638.8 161.18 637.97 161.62 636.8 162.46 635.45 163.43 634.05 164.4 632.53 165.05 619.98 170.44 607.41 175.76 594.84 181.11 591.61 182.49 588.38 183.87 585.15 185.26 584.29 185.63 583.49 185.93 583.08 184.57 583.58 184.16 584.06 183.76 584.55 183.37 593.41 176.41 602.22 169.37 611.17 162.51 617 158.04 621.98 152.57 628.02 148.34 628.74 147.84 629.62 147.26 629.41 145.74 628.58 145.98 627.79 146.05 627.21 146.43 626.36 147 625.65 147.79 624.9 148.5 623.52 149.82 622.24 151.27 620.77 152.48 614 158.09 607.18 163.64 600.39 169.21 598.59 170.69 596.8 172.18 595 173.67 594.89 173.56 594.78 173.44 594.68 173.33 595.5 172.4 596.33 171.48 597.14 170.54 601.62 165.43 606.02 160.26 610.62 155.25 612.16 153.58 614.2 152.39 615.97 150.92 616.88 150.16 617.78 149.35 618.52 148.42 619.31 147.42 619.94 146.29 620.55 145.17 621.89 142.72 622.98 140.1 624.52 137.79 630.26 129.22 636.17 120.77 641.96 112.24 649.37 101.33 657.04 90.59 662.54 78.51 664.16 74.95 665.93 71.45 667.34 67.81 668.14 65.76 668.48 63.51 668.79 61.31 669.03 59.57 668.5 57.94 666.86 56.96 665.22 55.99 663.73 56.82 662.38 57.65 661.09 58.44 659.94 59.45 658.73 60.36 657.71 61.12 656.78 62.27 655.63 62.56 652.57 63.33 650.87 65.62 648.93 67.72 646.76 70.06 644.58 72.42 642.27 74.62 640.6 76.21 638.83 77.75 636.45 78.27 634.1 78.78 632.42 80.21 631.3 82.25 630.07 84.49 629 86.81 627.84 89.09 627.11 90.51 626.38 91.92 625.57 93.29 624.98 94.28 624.11 94.9 622.93 95.17 621.11 95.6 619.63 96.66 618.24 97.93 617.2 98.87 615.9 99.53 614.7 100.29 613.78 100.87 612.64 101.23 611.92 101.99 610.66 103.31 609.68 104.9 608.51 106.31 607.96 106.97 607.3 107.9 606.59 107.99 603.97 108.35 602.5 110.14 601.23 112.06 598.97 115.47 595.84 117.99 592.61 120.26 590.39 121.82 589.1 123.67 588.46 126.11 587.33 130.43 586.04 134.73 585.27 139.12 584.46 143.74 583.18 148.1 580.36 152.06 580.83 150.47 581.35 148.89 581.77 147.29 583.62 140.36 585.47 133.42 587.24 126.47 587.49 125.5 587.47 124.39 587.27 123.4 586.99 121.99 586.01 121.58 584.77 122.34 583.48 123.13 582.33 124.14 581.09 125.01 579.39 126.19 577.7 127.4 575.92 128.46 574.77 129.15 573.49 129.24 572.32 128.32 570.68 127.02 568.97 127.27 567.45 128.41 565.8 129.66 564.17 130.99 562.82 132.53 558.95 136.92 555.71 141.76 553.2 147.3 552.92 146.72 552.7 146.32 552.54 145.9 551.59 143.44 550.7 140.96 549.7 138.52 545.84 129.14 542.02 119.74 538.04 110.41 536.1 105.86 534.09 101.31 531.69 96.99 528.17 90.63 524.32 84.45 520.52 78.25 517.64 73.55 514.86 68.76 511.62 64.31 505.31 55.66 498.63 47.29 491.43 39.33 487.2 34.66 482.53 30.86 476.28 29.34 475.51 29.15 474.76 28.83 473.99 28.65 473.22 28.47 472.42 28.32 471.63 28.28 469.42 28.17 467.71 29.05 466.81 31.12 466.02 32.95 465.28 34.81 464.68 36.71 463.32 40.99 462.69 45.4 462.24 49.86 461.82 54.09 461.67 58.3 462.28 62.51 462.81 66.14 463.42 69.76 463.9 73.4 464.33 76.64 464.87 79.88 464.27 83.17 463.15 89.29 461.94 95.39 461.03 101.54 460.46 105.4 460.17 109.32 460.12 113.22 460.07 117.22 461.16 120.93 464.16 123.91 465.82 125.56 467.26 127.45 468.8 129.23 468.13 129.28 467.67 129.01 467.18 128.83 465.09 128.06 463.03 127.17 460.89 126.6 455.5 125.18 452.54 128.03 450.82 131.37 450.6 131.8 450.4 132.23 450.19 132.66 449.18 134.73 447.73 136.43 445.6 137.38 443.4 138.36 442.63 140.12 442.54 142.36 442.43 145.15 443.19 147.75 444.38 150.21 446.83 155.27 448.55 160.55 449.93 165.99 451.22 171.05 453.16 175.9 456.84 179.78 460.91 184.07 465 188.36 469.28 192.44 471.4 194.46 473.84 196.23 476.37 197.72 480.01 199.86 483.9 201.58 487.62 203.6 491.36 205.64 495.36 206.51 499.56 206.68 509.29 207.07 519.03 207.42 528.76 207.81 531.1 207.9 533.44 208.1 535.88 208.25 534.47 210.09 533.25 211.75 531.97 213.36 530.58 215.1 529.19 216.85 527.69 218.49 524.87 221.57 522.22 224.76 520.67 228.7 520.29 229.66 519.96 230.68 519.88 231.69 519.69 233.97 521.14 235.46 523.41 235.48 527.18 235.51 530.4 234.02 533.35 231.83 534.63 230.88 535.76 229.71 537.08 228.82 541.71 225.72 545.48 221.69 549.3 217.71 550.07 216.91 550.83 216.05 551.73 215.41 553.66 214.04 555.8 213.18 558.61 213.27 555.67 218.01 552.92 222.46 550.16 226.91 553.29 231.47 556.3 235.9 559.38 240.27 560.24 241.5 560.7 242.77 560.76 244.26 560.81 245.66 561.01 247.05 561.15 248.45 561.69 246.93 561.87 245.44 561.99 243.94 562.15 241.89 561.67 240.11 560.39 238.36 557.61 234.56 555.1 230.57 552.46 226.63 552.89 225.91 553.23 225.29 553.63 224.7 555.75 221.5 557.96 218.36 559.99 215.11 561.14 213.26 563 212.4 564.79 211.74 565.68 211.42 567.08 212.48 568.24 212.93 568.61 213.07 568.94 213.35 569.32 213.44 571.02 213.84 571.57 215.03 571.59 216.62 571.6 217.1 571.63 217.58 571.64 218.06 571.76 221.64 571.89 225.22 572.01 228.89 574.44 229.71 576.74 230.49 579.03 231.27 579.13 231.07 579.22 230.87 579.32 230.67 578.04 229.92 576.82 229.03 575.46 228.47 573.82 227.8 573.11 226.79 573.15 225.02 573.22 222.07 573.15 219.11 573.16 216.15 573.17 214.2 572.35 212.83 570.55 211.96 569.45 211.43 568.47 210.66 567.39 209.97 569.99 207.33 572.8 208.88 573.16 211.74 573.4 213.64 573.94 215.5 574.15 217.39 574.44 219.97 575.21 222.32 576.63 224.52 578.62 227.61 580.45 230.8 582.38 233.93 583.57 235.85 583.58 235.87 582.03 237.6 581.57 238.12 580.76 238.48 580.95 239.6 582.74 238.38 584.49 237.43 585.56 235.66 583.82 232.96 582.05 230.39 580.47 227.72 578.81 224.9 577.33 221.98 576.88 218.67 576.46 215.59 576.05 212.51 575.67 209.43 575.46 207.71 575.73 207.11 577.39 206.45 579.76 205.5 582.17 204.66 584.61 203.9 587.39 203.04 590.22 202.32 593.45 201.42 593.34 203.33 593.41 204.85 593.14 206.3 592.63 209.04 591.95 211.76 591.3 214.47 590.58 217.49 589.77 220.5 589.07 223.53 588.8 224.69 588.5 225.97 589.5 226.94 590.57 227.97 591.9 228.55 593.37 228.64 593.45 228.49 593.54 228.34 593.62 228.18 592.55 227.46 591.47 226.74 590.3 225.96 590.44 224.92 590.51 223.89 590.73 222.89 591.66 218.68 592.68 214.5 593.57 210.28 594.08 207.86 594.52 205.42 594.81 202.97 595.11 200.45 594.4 199.81 591.83 200 590.72 200.08 589.59 200.2 588.52 200.49 584.68 201.56 580.86 202.72 577.03 203.84 576.74 203.92 576.43 203.92 576.07 203.96 575.94 203.43 575.84 202.99 575.72 202.5 577.56 201.67 579.04 200.71 579.58 198.7 579.74 198.1 580.51 197.63 581.04 197.15 581.87 196.4 582.75 195.71 583.6 194.98 585.84 193.08 586.7 190.79 585.63 187.93 585.58 187.81 585.69 187.63 585.77 187.3 586.35 186.97 587 186.52 587.72 186.19 590.98 184.67 594.24 183.16 597.53 181.71 609 176.65 620.48 171.6 631.97 166.57 634.16 165.61 636.43 164.82 638.62 163.85 639.38 163.52 640.2 163.26 640.94 162.86 640.5 162.32 640.13 161.71 639.78 161.09ZM635.77 115.47C634.11 121.33 630.35 125.94 626.6 130.5 616.59 142.65 606.46 154.7 596.36 166.77 593.81 169.81 591.18 172.79 588.26 176.17 588.97 169.99 590.19 164.58 593.97 160.05 596.22 157.35 598.29 154.5 600.55 151.81 601.24 150.99 602.2 150.25 603.19 149.85 606.93 148.35 609.65 145.89 611.44 142.26 612.81 139.47 614.42 136.79 615.97 134.09 616.68 132.85 617.52 131.82 618.98 131.17 620.23 130.61 621.26 129.45 622.22 128.4 623.35 127.17 624.4 125.83 625.31 124.43 628.18 120 632.37 116.88 636.05 113.26 636.2 113.33 636.35 113.4 636.5 113.48 636.26 114.12 635.96 114.78 635.77 115.47ZM642.02 106.78C640.89 105.13 640.89 105.13 643.07 104.2 642.68 105.18 642.39 105.89 642.02 106.78ZM645.53 98.7C644.91 96.55 644.91 96.55 646.74 96.07 646.31 97.02 645.97 97.75 645.53 98.7ZM654.75 88C654.4 87.93 654.04 87.87 653.69 87.8 653.77 87.37 653.86 86.94 653.94 86.51 654.21 86.54 654.48 86.57 654.74 86.6L654.74 88ZM658.45 81.74C658.43 81.78 658.06 81.63 657.86 81.57L658.3 80.24C658.54 80.31 658.78 80.37 659.02 80.44 658.84 80.87 658.67 81.32 658.45 81.74ZM664.09 66.35 664.65 66.43C664.55 67 664.46 67.58 664.36 68.15L663.87 68.08C663.95 67.5 664.02 66.92 664.09 66.35ZM663.5 61.42C663.51 61.7 663.64 62.08 663.5 62.23 662.96 62.85 662.43 62.67 661.72 61.76 662.45 61.62 662.98 61.52 663.5 61.42ZM653.06 67.88C653.51 68.04 653.96 68.2 654.41 68.36 654.41 68.56 654.42 68.75 654.42 68.95 653.98 69.17 653.53 69.39 652.55 69.88 652.8 68.89 652.93 68.38 653.06 67.88ZM660.14 68.6C659.96 69.48 659.92 70.42 659.57 71.22 658.62 73.41 657.66 75.62 656.47 77.67 654.44 81.17 652.22 84.56 650.08 87.99 651.51 80.53 653.2 73.23 660.14 68.6ZM651.97 91.65C651.82 93.52 651.82 93.52 649.77 93.81 649.96 92.27 651.11 92.29 651.97 91.65ZM649.17 71.33C648.66 72.7 648.17 73 646.85 72.58 647.69 72.13 648.2 71.85 649.17 71.33ZM638.25 82.55 636.03 82.55C636.92 81.09 636.92 81.09 638.25 82.55ZM635.03 104.71C635.86 100.17 636.55 95.59 637.66 91.12 638.14 89.18 639.29 87.26 640.58 85.71 642.92 82.9 645.6 80.37 648.15 77.73 648.29 77.59 648.53 77.55 648.99 77.36 648.62 78.46 648.38 79.37 648.02 80.23 644.64 88.33 641.26 96.42 637.83 104.5 637.27 105.81 636.54 107.07 634.7 107.55 634.82 106.5 634.87 105.59 635.03 104.71ZM633.51 86.76C633.44 88 633.39 88.94 633.34 89.87 633.18 89.91 633.02 89.95 632.86 89.99 632.47 89.52 632.08 89.05 631.54 88.41 632.12 87.92 632.67 87.47 633.51 86.76ZM627.69 93.96C628.1 93.84 628.55 93.86 628.99 93.83 628.99 94.11 629 94.39 629 94.67 628.53 94.71 628.07 94.74 627.6 94.78 627.63 94.49 627.59 93.99 627.69 93.96ZM621.43 101.63C622.12 101.02 622.91 100.53 623.49 100.12 623.52 100.84 623.62 102 622.39 102.67 622.13 102.81 621.7 102.66 621.35 102.64 621.37 102.3 621.25 101.79 621.43 101.63ZM623.65 106.37C625.17 102.34 627.98 98.84 631.86 96.47 632.91 97.51 632.61 98.56 632.35 99.53 631.69 102.07 631.12 104.65 630.2 107.09 628.24 112.3 626.1 117.44 623.99 122.6 623.66 123.4 623.21 124.18 622.67 124.86 622.03 125.67 621.25 126.39 619.74 126.08 620.54 119.3 621.29 112.6 623.65 106.37ZM615.75 103.94C615.47 104.63 615.29 105.08 614.9 106.06 614.39 105.14 614.19 104.77 613.92 104.28 614.52 104.16 614.95 104.08 615.75 103.94ZM610.42 108.62C610.51 110.03 609.73 110.39 608.81 110.57L608.41 110 610.42 108.62ZM607.64 121.27C607.97 119.47 608.49 117.71 608.99 115.95 609.31 114.84 609.88 113.96 611.24 113.79 612.59 113.62 613.22 112.58 613.61 111.37 614.35 109.08 616.04 107.48 617.71 105.87 617.91 105.68 618.25 105.63 618.63 105.48 619.49 107.29 618.97 109.09 618.6 110.69 617.28 116.52 615.74 122.29 614.19 128.07 613.89 129.2 613.31 130.32 612.61 131.27 609.91 134.99 607.11 138.64 604.4 142.24 606.26 135.36 606.36 128.22 607.64 121.27ZM586.26 165.11C586.62 161.06 587.08 157.02 587.39 152.97 587.48 151.8 587.1 150.59 587.12 149.4 587.26 143.4 588.05 137.48 589.96 131.77 590.33 130.65 590.95 129.59 591.6 128.6 591.92 128.1 592.51 127.52 593.05 127.45 596.02 127.03 597.77 124.59 600.17 123.23 600.85 122.85 601.09 121.63 601.46 120.76 602.04 119.39 602.27 117.83 603.56 116.77 604.93 117.11 605.42 118.05 605.33 119.26 605.16 121.48 605.1 123.75 604.57 125.9 601.89 136.7 598.13 147.12 592.89 156.96 592.05 158.54 590.81 159.96 589.57 161.28 587.94 163.01 587.28 165.07 586.98 167.32 586.74 169.08 586.53 170.85 586.31 172.62 586.11 172.6 585.91 172.58 585.72 172.56 585.89 170.08 586.04 167.59 586.26 165.11ZM584.13 126.63C584.15 126.62 584.42 126.89 584.4 126.92 584.18 127.28 583.93 127.61 583.68 127.95 583.49 127.76 583.3 127.58 583.11 127.39 583.45 127.13 583.78 126.86 584.13 126.63ZM578.58 129.51C578.98 130.85 578.55 131.08 577.34 130.86 577.79 130.36 578.11 130.02 578.58 129.51ZM568.78 136.78C567.82 142.78 566.91 148.5 565.97 154.22 565.74 155.61 565.69 155.6 564.1 155.82 564.87 153.75 564.54 151.78 563.94 149.79 563.51 148.35 563.14 146.86 562.95 145.37 562.33 140.39 563.61 138.47 568.78 136.78ZM545.16 136.81C546.27 136.52 546.61 137.64 546.82 138.44 547.6 141.43 548.28 144.44 549.03 147.61 548.62 148.16 548.33 148.94 547.8 149.17 546.92 149.56 546.58 148.65 546.34 148.01 546.06 147.28 545.9 146.5 545.73 145.73 545.25 143.57 544.75 141.41 544.36 139.23 544.19 138.34 543.96 137.13 545.16 136.81ZM532.86 114.58C534.5 116 535.86 119.61 536.96 125.3 537.22 126.63 537.17 126.92 536.55 128.08 535.72 127.15 532.83 118.32 532.43 115.36 532.4 115.13 532.7 114.86 532.86 114.58ZM530.11 106.64C525.22 103.47 521.52 99.79 521.03 93.75 524.6 95.47 530.26 103.41 530.11 106.64ZM526.91 115.41C523.77 116.06 520.76 112.69 520.82 108.58 523.66 107.99 525.71 110.28 526.91 115.41ZM508.98 110.63C510.9 113.08 512.76 115.59 514.67 118.05 515.59 119.24 515.99 120.54 515.91 122.06 515.82 123.86 515.89 125.67 515.89 127.48 515.68 127.54 515.48 127.61 515.27 127.67 513.71 125.87 512.12 124.09 510.58 122.28 508.25 119.54 505.92 116.8 503.66 114.01 501.21 110.99 498.12 108.73 494.93 106.58 493.01 105.28 491.11 103.95 489.15 102.72 487.02 101.38 485.79 99.34 484.63 97.24 484.06 96.2 483.98 95.11 484.64 94.05 485.36 92.88 486.53 92.32 487.95 92.84 489.36 93.35 490.75 94.04 491.97 94.91 498.3 99.41 504.16 104.47 508.98 110.63ZM501.4 84.86C501.82 84.27 502.53 84.29 503.09 84.78 503.56 85.2 504.05 85.65 504.38 86.17 506.26 89.17 508.63 91.74 511.18 94.17 511.45 94.43 511.64 94.77 512.09 95.37 510.17 95.71 508.89 95.28 507.82 94.16 505.89 92.15 503.95 90.14 502.05 88.1 501.62 87.64 501.16 87.09 501.03 86.52 500.91 86.01 501.09 85.3 501.4 84.86ZM497.37 80.39C495.45 79.32 493.5 78.06 492.04 76.45 488.94 73.03 486.16 69.31 483.21 65.74 482.2 64.51 481.1 63.35 480 62.19 479.03 61.17 478.38 60.02 478.37 58.05 478.33 57.2 478.96 56.12 479.97 55.25 481.42 54 483.16 53.48 485.02 53.31 486.23 53.2 487.29 53.69 487.94 54.65 489.27 56.62 490.59 58.62 491.68 60.73 493.98 65.19 496.17 69.71 498.32 74.25 498.96 75.6 499.46 77.06 499.73 78.52 500.07 80.28 498.9 81.26 497.37 80.39ZM482.47 72.62C484.55 74.35 486.6 76.11 488.52 78.01 491.41 80.88 493.86 84.13 495.83 87.7 496.35 88.65 496.74 89.67 497.18 90.66 497.03 90.77 496.88 90.89 496.74 91 490.17 87.53 484.21 83.2 478.73 78.19 477.94 77.47 477.39 76.41 476.95 75.41 476.33 73.98 476.78 72.94 478.19 72.29 479.66 71.62 481.19 71.55 482.47 72.62ZM479.53 85.15C480.65 85.76 481.02 88.26 480.14 89.16 479.86 89.45 479.1 89.56 478.69 89.41 475.66 88.3 473.21 86.37 471.23 83.7 474.22 83.28 476.98 83.76 479.53 85.15ZM481.26 96.02C480.9 97.38 479.79 97.8 478.69 97.41 476.26 96.55 473.75 95.71 471.72 93.49 475.23 92.35 479.27 93.51 481.26 96.02ZM478.97 105.17C480.25 105.15 481.54 105.29 482.8 105.16 485.18 104.92 487.27 105.65 489.03 107.11 492.78 110.21 496.64 113.22 500.05 116.67 505.61 122.29 510.9 128.17 516.19 134.04 518.9 137.05 520.27 140.87 521.94 144.49 522.51 145.72 522.97 146.99 523.48 148.24 523.39 148.36 523.3 148.49 523.22 148.61 522.21 147.86 521.21 147.11 520.2 146.37 515.71 143.07 511.69 139.19 506.96 136.14 503.38 133.83 500.34 130.64 497.22 127.67 493.46 124.08 489.69 120.52 485.39 117.57 483.1 116 481.31 114 479.89 111.65 478.71 109.7 477.3 107.87 476.37 105.35 477.46 105.28 478.21 105.18 478.97 105.17ZM517.91 115.53C515.25 114.08 509.7 107.15 509.19 104.4 512.73 104.97 514.33 107.79 516.26 110.04 518.26 112.38 518.49 113.69 517.91 115.53ZM510.88 81.21C511.94 81.25 512.98 81.77 513.59 82.93 514.63 84.91 515.63 86.9 516.62 88.9 516.83 89.32 516.97 89.81 517 90.27 517.1 91.72 515.68 92.6 514.39 91.9 514.05 91.71 513.69 91.45 513.48 91.14 511.89 88.76 510.21 86.42 508.82 83.92 507.87 82.21 508.64 81.25 510.88 81.21ZM500.48 61.45C502.84 64.78 505.01 68.22 506.43 72.07 506.74 72.91 507.33 73.85 506.03 74.86 505.32 74.15 504.45 73.55 503.93 72.73 501.51 68.87 499.36 64.87 497.87 60.54 497.8 60.33 497.84 60.09 497.81 59.61 499.06 59.87 499.87 60.58 500.48 61.45ZM494.36 54.03C493.46 53.63 492.68 53.48 492.16 53.02 489.42 50.63 486.74 48.17 484.06 45.7 483.74 45.41 483.56 44.98 483.25 44.51 487.11 44.65 493.33 49.88 494.36 54.03ZM479.04 35.17C479.92 35.51 480.09 36.26 479.61 37.13 478.78 38.64 477.17 39.07 475.9 37.93 474.65 36.81 473.1 35.93 472.23 34.13 474.76 33.76 476.93 34.35 479.04 35.17ZM480.97 50.13C480.77 51.84 480.26 52.13 478.58 51.66 476.03 50.96 474.68 49 473.57 46.87 472.96 45.7 472.69 44.35 472.2 42.87 477.4 41.74 481.54 45.28 480.97 50.13ZM469.52 50.14C470.24 49.55 471.05 49.55 471.64 50.29 472.83 51.77 473.96 53.31 475.09 54.85 475.22 55.03 475.23 55.3 475.39 55.89 474.92 56.34 474.42 57.07 473.72 57.41 473.38 57.57 472.48 57.16 472.2 56.75 471.15 55.25 470.25 53.65 469.3 52.08 468.9 51.39 468.85 50.69 469.52 50.14ZM471.85 66.16C473.01 66.85 473.79 67.82 473.72 69.24 473.65 70.8 472.02 71.7 470.83 70.73 469.06 69.28 467.45 67.63 465.8 66.04 465.67 65.91 465.7 65.62 465.62 65.25 467.84 65.04 469.92 65.02 471.85 66.16ZM469.7 88.8C469.4 89.4 468.63 89.91 467.96 90.16 467.17 90.46 466.54 89.87 466.35 89.12 466.07 88.01 465.95 86.87 465.73 85.49 466.9 85.75 467.7 85.84 468.42 86.11 469.61 86.58 470.23 87.74 469.7 88.8ZM465.18 95.8C468.61 97.66 472.9 97.25 476.37 100.22 475.51 101.03 474.98 101.61 474.36 102.09 472.36 103.62 471.68 103.66 469.72 102.15 468.28 101.03 466.89 99.82 465.59 98.54 464.94 97.9 464.29 97.07 465.18 95.8ZM464.65 120.6C463.58 120.04 463.29 119.04 463.36 117.37 464.49 118.42 465.3 119.18 466.55 120.35 465.53 120.5 464.98 120.77 464.65 120.6ZM467.2 105.51C467.93 105.61 468.81 105.48 469.37 105.85 470.61 106.65 471.8 107.6 472.8 108.68 473.7 109.65 473.22 110.7 471.88 110.81 471.25 110.86 470.37 110.67 469.98 110.24 468.84 108.99 467.88 107.57 466.85 106.21 466.97 105.97 467.09 105.74 467.2 105.51ZM467.51 114.86C469.07 115.09 470.1 115.25 471.49 115.45 470.91 116.53 470.51 117.26 470.08 118.06 468.34 117.89 468.21 116.56 467.51 114.86ZM470.34 135.82C469.11 135.15 467.97 134.52 466.61 133.78 469.4 133.02 469.96 133.35 470.34 135.82ZM463.14 140.4C466.27 138.83 469.45 138.55 472.37 140.9 479.03 146.26 485.64 151.7 492.3 157.06 497.4 161.17 502.55 165.22 507.67 169.3 508.34 169.83 509 170.38 509.67 170.92 509.61 171.04 509.54 171.15 509.48 171.27 508.71 170.92 507.89 170.65 507.17 170.22 499.89 165.88 492.58 161.61 485.39 157.14 480.43 154.05 475.34 151.23 470.11 148.63 467.61 147.39 465.17 145.99 462.85 144.46 460.66 143.01 460.79 141.57 463.14 140.4ZM512.31 175.67C513.46 176.18 514.63 176.69 515.83 177.08 517.45 177.6 518.82 178.43 520.12 179.57 523.94 182.95 527.9 186.18 531.76 189.52 533.18 190.75 534.47 192.14 535.82 193.45 535.73 193.61 535.63 193.77 535.54 193.93 532.42 193.2 529.19 192.78 526.21 191.68 517.62 188.49 509.07 185.17 500.63 181.61 495.57 179.48 491.53 175.77 487.81 171.77 487.45 171.38 487.23 170.87 486.65 169.96 489.79 169.85 492.4 169.7 495.02 169.7 496.04 169.7 497.08 169.96 498.06 170.27 501.02 171.19 503.99 172.12 506.9 173.2 508.75 173.89 510.5 174.87 512.31 175.67ZM461.75 132.34C461.16 132.38 460.56 132.43 459.77 132.49 460.36 131.21 461.03 131.6 461.75 132.34ZM456.72 137.72C458 136.9 458.23 137.93 458.92 139.16 457.74 138.9 457.15 138.77 456.42 138.61 456.54 138.24 456.54 137.84 456.72 137.72ZM452.01 135.04C453.29 136.81 453.29 136.81 451.59 138.53 451.76 137.13 451.87 136.25 452.01 135.04ZM450.1 152.26C449.77 151.5 449.43 150.73 449.1 149.97 449.28 149.89 449.46 149.81 449.64 149.74 449.95 150.51 450.27 151.28 450.58 152.05 450.42 152.11 450.26 152.19 450.1 152.26ZM452.98 143.37C452.2 143.96 451.54 144.46 450.69 145.11 450.86 142.48 451.09 142.3 452.98 143.37ZM451.25 158.78C452.12 159.26 451.92 160.11 452.17 160.73 452.45 161.43 452.78 162.12 453.08 162.81 451.4 162 450.83 160.67 451.25 158.78ZM453.42 148.86C453.71 146.9 455.51 146.41 457.07 145.79 457.29 145.7 457.51 145.63 457.72 145.55 457.9 145.6 458.09 145.6 458.19 145.69 461.74 149.04 466.07 150.97 470.5 152.89 478.06 156.18 485.07 160.49 491.56 165.61 491.66 165.69 491.67 165.87 491.78 166.15 487.99 166.1 484.25 165.95 480.77 164.54 474.34 161.93 467.96 159.17 461.62 156.35 459.66 155.48 457.81 154.31 456.05 153.09 454.63 152.1 453.11 150.89 453.42 148.86ZM456.1 175.1C455.87 174.62 455.65 174.13 455.42 173.65 455.6 173.55 455.78 173.45 455.95 173.35 456.13 173.88 456.3 174.41 456.48 174.94L456.1 175.1ZM456.11 162.95C454.96 161.81 454.97 159.64 455.85 158.26 456.34 157.5 456.97 157.17 457.87 157.51 459.14 157.99 460.45 158.36 461.68 158.91 467.27 161.43 472.84 164 478.41 166.56 478.88 166.78 479.3 167.1 479.74 167.37 479.73 167.53 479.71 167.68 479.7 167.84 478.25 168.01 476.77 168.46 475.35 168.31 470.77 167.83 466.2 167.19 461.65 166.5 459.33 166.14 457.68 164.51 456.11 162.95ZM462.34 182.77C461.6 181.77 460.86 180.77 460.13 179.77 460.29 179.66 460.45 179.55 460.6 179.44 461.8 180.12 462.65 181.04 462.34 182.77ZM461.77 172.1C461.48 171.65 461.28 171.13 460.79 170.14 462.87 170.37 464.44 170.54 466.01 170.71 470.68 171.22 475.34 171.79 480.02 172.21 482.08 172.39 483.86 173.18 485.61 174.15 488.65 175.84 491.35 178.03 492.61 179.84 492.46 179.99 492.3 180.26 492.13 180.27 488.56 180.41 485 180.58 481.43 180.62 478.72 180.66 476.01 180.48 473.3 180.51 471.47 180.52 469.84 180.03 468.39 178.94 465.83 177 463.53 174.8 461.77 172.1ZM469.39 184.51C469.9 185.97 470.25 186.98 470.61 188 469.79 187.16 468.04 186.68 469.39 184.51ZM476.42 194.29C475.9 193.96 475.38 193.62 474.85 193.29 474.96 193.14 475.07 192.99 475.17 192.84L476.66 193.93C476.58 194.05 476.5 194.17 476.42 194.29ZM536.47 205.52C532.14 204.91 527.81 204.29 523.47 203.7 517.55 202.89 511.64 201.95 505.7 201.35 503.27 201.11 500.75 201.46 498.31 201.79 494.29 202.34 490.71 201.57 487.56 198.94 486 197.63 484.39 196.39 482.43 194.82 484.35 194.82 485.74 194.74 487.12 194.83 493.88 195.31 500.65 195.77 507.4 196.38 509.77 196.59 512.14 197.07 514.46 197.64 520.18 199.06 525.88 200.58 531.58 202.1 533.51 202.61 535.25 203.52 536.68 204.91 536.61 205.12 536.54 205.32 536.47 205.52ZM539.77 202.07C537.63 201.2 535.59 200.01 533.39 199.35 528.58 197.91 523.73 196.59 518.84 195.47 513.63 194.27 508.39 193.19 503.11 192.36 499.42 191.78 495.65 191.68 491.92 191.41 487.94 191.11 483.97 190.79 479.98 190.62 477.72 190.52 476.25 189.4 475.12 187.63 474.48 186.63 473.93 185.58 473.19 184.29 474.23 184.12 475 183.89 475.76 183.89 479.99 183.93 484.22 183.91 488.43 184.14 492.17 184.35 495.9 184.77 499.61 185.3 501.65 185.59 503.67 186.17 505.62 186.83 513.47 189.51 521.3 192.27 529.13 195.02 533.34 196.5 537.55 198 541.74 199.55 542.82 199.95 543.83 200.56 545.12 201.19 543.27 202.76 541.55 202.79 539.77 202.07ZM543.14 188.78C537.25 183.7 530.76 179.47 524.32 175.15 517.81 170.79 511.35 166.33 505.67 160.9 500.82 156.26 496.2 151.38 491.46 146.62 487.46 142.6 483.42 138.6 478.74 135.35 476.43 133.75 475.33 131.6 475.18 128.91 474.99 125.34 475.85 122 477.36 118.76 479.71 118.99 481.47 120.11 483.04 121.45 486.92 124.77 490.78 128.14 494.57 131.56 502.6 138.79 510.94 145.62 520.16 151.29 524.99 154.26 527.86 158.82 530.46 163.65 532.31 167.09 534.14 170.56 536.24 173.85 540.32 180.25 544.58 186.53 548.76 192.87 548.88 193.04 548.91 193.27 549.15 193.98 546.9 192.04 545.02 190.41 543.14 188.78ZM553.52 193.97C552.84 193.04 552.1 192.15 551.48 191.19 547.97 185.75 544.63 180.21 540.96 174.88 536.34 168.17 533.57 160.57 530.07 153.32 528.06 149.15 526.33 144.85 524.26 140.71 522.74 137.68 521.63 134.56 521.03 131.24 520.41 127.79 519.76 124.34 519.17 120.88 519.07 120.29 519.16 119.68 519.16 118.87 522.38 119.1 525.21 119.42 526.86 122.5 529.2 126.86 531.61 131.18 534.02 135.51 535.11 137.46 536.16 139.45 537.39 141.31 539.97 145.21 541.89 149.43 543.21 153.88 545.94 163.13 548.52 172.43 551.06 181.74 552.14 185.72 552.95 189.77 553.88 193.78 553.76 193.84 553.64 193.9 553.52 193.97ZM558.28 157.25C555.31 153.6 555.05 149.48 557.55 145.75 561.73 149.02 561.81 152.41 558.28 157.25ZM568.91 171.01C567.24 175.04 567.22 179.23 568 183.47 568.15 184.27 568.11 185.11 568.17 185.98 564.95 185.64 564.17 185.06 563.44 182.49 563.16 181.5 562.98 180.47 562.87 179.44 562.45 175.51 561.03 171.85 559.93 168.11 559.55 166.81 559.31 165.47 558.94 164.16 558.59 162.92 558.98 161.97 559.94 161.2 560.19 161 560.44 160.8 560.69 160.6 563.79 158.28 564.38 158.36 567.01 161.25 567.75 162.06 568.65 162.74 569.48 163.48 570.19 164.11 570.92 164.72 571.73 165.42 570.68 167.46 569.67 169.18 568.91 171.01ZM573.94 159.58C573.74 160.23 573.31 160.81 572.99 161.43 569.78 159.73 568.68 157.79 569.06 154.59 569.69 149.34 571.16 144.29 572.63 139.23 573.73 135.48 576.08 133.91 580.07 134.11 580.71 136.47 580.18 138.72 579.6 140.81 577.87 147.11 575.87 153.33 573.94 159.58ZM579.76 179.9C579.56 180.83 579.35 181.81 578.88 182.62 578.47 183.33 577.79 184.02 577.07 184.4 575.71 185.11 574.53 184.24 574.59 182.65 574.61 182.02 574.75 181.37 574.95 180.77 577.61 172.82 580.28 164.89 582.97 156.95 583.02 156.81 583.17 156.72 583.7 156.13 583.27 159.89 583.04 163.24 582.48 166.53 581.7 171.01 580.7 175.45 579.76 179.9Z"/><path d="M604.39 142.27C604.43 142.35 604.4 142.31 604.39 142.27L604.39 142.27Z"/></g></g></svg>